<?xml version="1.0" encoding="UTF-8"?>
<svg width="43px" height="54px" viewBox="0 0 43 54" version="1.1" xmlns="http://www.w3.org/2000/svg" xmlns:xlink="http://www.w3.org/1999/xlink">
    <!-- Generator: Sketch 59.1 (86144) - https://sketch.com -->
    <title>challenging_behavior</title>
    <desc>Created with Sketch.</desc>
    <g id="Skillstar" stroke="none" stroke-width="1" fill="none" fill-rule="evenodd">
        <g id="Exit-prompt" transform="translate(-313.000000, -234.000000)" fill="#000000" fill-rule="nonzero">
            <g id="Group" transform="translate(19.000000, 233.000000)">
                <g id="challenging_behavior" transform="translate(294.000000, 0.000000)">
                    <path d="M41.8251716,49.8279437 C41.7708443,49.5680079 41.709726,49.294742 41.6486078,49.0214762 C40.745416,44.9091582 39.5094693,39.2772155 35.5367836,35.4848186 C34.3533795,34.4530813 32.9351864,33.7148478 31.401116,33.3320168 C32.6057885,31.260955 33.2727916,28.9308107 33.3433179,26.5470254 C33.3433179,22.8546038 32.5148261,19.8420143 30.8850064,17.5825722 C29.4589141,15.5830659 26.728966,13.2636386 21.7987611,13.2103184 L21.6221973,13.2103184 C20.4467678,13.2133553 19.2771661,13.3725393 18.1452485,13.6835349 C18.4869351,12.0750848 17.9992098,10.4046787 16.8413927,9.21797087 C16.9966034,8.44539399 17.0263985,7.65359228 16.9296746,6.87188349 C16.4543105,3.63268329 12.9977344,1 9.22198524,1 C6.32226423,1 2.83852447,2.67958529 1.75197796,7.39175512 C0.889531663,11.1241669 1.31735935,13.6568748 2.09152374,15.3364601 C1.8130962,16.4961738 1.44638675,18.0824488 1.10684097,19.7753641 C-0.251342176,26.2537645 -0.0951511151,28.4398914 0.203649176,29.7728956 C0.536404046,31.2725253 2.32241488,38.5773883 6.26793691,43.6028141 L7.46313807,51.3675636 L8.01999316,55 L43,55 L41.8251716,49.8279437 Z M32.5080352,50.7410516 C32.1616985,49.3280671 31.9579711,47.6151568 30.5047151,45.7422859 L29.2755593,50.7410516 L11.7617877,50.7410516 C11.2388872,47.3418909 10.4036046,41.8032585 10.4036046,41.8032585 C7.34769251,38.470748 5.29683596,32.6121945 4.46155333,28.8597877 C3.82320725,26.0204888 6.77725559,14.4966675 6.77725559,14.4966675 C6.77725559,14.4966675 4.84863552,13.3636139 6.0030912,8.3381881 C6.53278262,6.05875093 7.88417485,5.26561343 9.23556707,5.26561343 C10.8653868,5.26561343 12.4884157,6.41199704 12.6310249,7.48506542 C12.7736342,8.55813379 11.4018692,11.9706245 12.3729701,11.9706245 C12.4378843,11.9708983 12.5023102,11.9596069 12.5631158,11.9372994 C12.6860346,11.8984431 12.8142731,11.8782154 12.9434071,11.8773142 C13.9824172,11.8773142 14.722627,13.2103184 12.22357,14.1634164 C11.761741,14.3621669 11.2671023,14.4773246 10.7635231,14.5033325 L10.6752412,14.5033325 C10.6752412,14.5033325 8.99109411,27.2135275 9.52078553,28.5798568 C10.2745772,30.4993829 12.4952066,35.5248087 14.8380725,37.197729 L14.8380725,37.197729 C15.6461404,37.9910793 16.9441187,38.0290631 17.7989118,37.2843742 C18.2325001,36.910773 18.4969081,36.383274 18.5338504,35.8181579 C18.5707928,35.2530418 18.3772364,34.6967049 17.9958483,34.2717847 L16.814229,32.9387805 L16.814229,32.9387805 C15.3742258,31.0955453 14.5383012,28.8666782 14.4170358,26.5470254 C14.4170358,21.2816588 16.3796104,17.515922 21.7104792,17.4759319 L21.7104792,17.4759319 C27.0006026,17.515922 28.9971318,21.2816588 28.9971318,26.5470254 C28.9971318,29.2996791 27.1024663,32.5921995 25.513392,33.9585288 C25.513392,33.9585288 24.6237821,36.2313009 25.9344288,36.5178968 C25.9344288,36.5178968 29.2348138,37.1377438 30.0089782,37.3576895 C30.9223399,37.563555 31.7765825,37.9690884 32.5080352,38.5440632 C35.7676748,41.663293 36.7455666,47.0019748 37.5808493,50.7477166 L32.5080352,50.7410516 Z" id="Shape"></path>
                </g>
            </g>
        </g>
    </g>
</svg>