<?xml version="1.0" encoding="UTF-8"?>
<svg width="31px" height="53px" viewBox="0 0 31 53" version="1.1" xmlns="http://www.w3.org/2000/svg" xmlns:xlink="http://www.w3.org/1999/xlink">
    <!-- Generator: Sketch 59.1 (86144) - https://sketch.com -->
    <title>close_toothpaste</title>
    <desc>Created with Sketch.</desc>
    <g id="Skillstar" stroke="none" stroke-width="1" fill="none" fill-rule="evenodd">
        <g id="Learning-Zone-2" transform="translate(-178.000000, -988.000000)" fill="#000000" fill-rule="nonzero">
            <g id="oval-copy" transform="translate(137.000000, 955.000000)">
                <g id="close_toothpaste" transform="translate(56.500000, 59.500000) rotate(-180.000000) translate(-56.500000, -59.500000) translate(41.000000, 33.000000)">
                    <g id="toothpaste">
                        <path d="M1.10288462,52.0774074 C1.66533175,52.5711894 2.45059306,52.8517739 3.27288462,52.8527852 L27.8761538,52.8527852 C28.7042189,52.85445 29.4958109,52.5724937 30.0612193,52.0744818 C30.6266276,51.5764698 30.9148903,50.9072896 30.8569231,50.2273148 L27.0594231,13.1371296 C27.0470982,13.0485603 27.016874,12.9623099 26.97,12.8819444 C26.9564548,12.8564228 26.9405089,12.8318109 26.9223077,12.8083333 L26.8746154,12.7298148 L20.7819231,5.94777778 L20.7819231,5.94777778 L20.7819231,1.84518519 C20.7819252,1.3549602 20.5449456,0.884884889 20.1232853,0.538704128 C19.7016251,0.192523367 19.1299483,-0.00130378986 18.5344231,-6.5351602e-06 L12.6146154,-6.5351602e-06 C11.3780073,0.00269656674 10.3763527,0.827236594 10.3730769,1.84518519 L10.3730769,5.93796296 C10.3730769,5.93796296 10.3730769,5.93796296 10.3730769,5.93796296 L4.26846154,12.7298148 C4.24428461,12.7631329 4.22239142,12.7975386 4.20288462,12.8328704 L4.20288462,12.8574074 C4.14268912,12.9565786 4.11010415,13.065548 4.1075,13.1763889 L0.31,50.2469444 C0.25699796,50.9209223 0.54381989,51.5830829 1.10288462,52.0774074 Z M28.6153846,50.9830556 C28.4187876,51.1548403 28.1449735,51.2524535 27.8582692,51.252963 L3.27288462,51.252963 C2.98632668,51.251877 2.71277686,51.1543581 2.51576923,50.9830556 C2.3233749,50.8152795 2.22221751,50.5902719 2.23557692,50.3598148 L2.62307692,46.5369444 L28.5259615,46.5369444 L28.9134615,50.3401852 C28.9265658,50.5792119 28.8186284,50.8120033 28.6153846,50.9830556 L28.6153846,50.9830556 Z M5.96153846,14.0057407 L25.1934615,14.0057407 L28.3590385,44.9224074 L2.79,44.9224074 L5.96153846,14.0057407 Z M12.3165385,1.84518519 C12.3165385,1.70967087 12.449992,1.59981481 12.6146154,1.59981481 L18.5344231,1.59981481 C18.6990464,1.59981481 18.8325,1.70967087 18.8325,1.84518519 L18.8325,5.61898148 L12.3165385,5.61898148 L12.3165385,1.84518519 Z M11.6309615,7.24333333 L19.5121154,7.24333333 L24.1621154,12.4255556 L6.98096154,12.4255556 L11.6309615,7.24333333 Z" id="Shape"></path>
                        <path d="M15.5775,40.834537 C19.8101923,40.834537 23.1248077,35.8437037 23.1248077,29.4689815 C23.1248077,23.0942593 19.8101923,18.1034259 15.5775,18.1034259 C11.3448077,18.1034259 8.03019231,23.0991667 8.03019231,29.4689815 C8.03019231,35.8387963 11.3269231,40.834537 15.5775,40.834537 Z M15.5775,19.7326852 C18.2780769,19.7326852 21.1753846,23.6586111 21.1753846,29.4935185 C21.1753846,35.3284259 18.2780769,39.2592593 15.5775,39.2592593 C12.8769231,39.2592593 9.97365385,35.3333333 9.97365385,29.4935185 C9.97365385,23.6537037 12.8709615,19.7081481 15.5775,19.7081481 L15.5775,19.7326852 Z" id="Shape"></path>
                    </g>
                </g>
            </g>
        </g>
    </g>
</svg>