<svg xmlns="http://www.w3.org/2000/svg" viewBox="0 0 196 196"><defs><style>.cls-1{fill:none;stroke:#000;stroke-miterlimit:10;stroke-width:16px;}</style></defs><g id="Layer_2" data-name="Layer 2"><g id="FP"><path d="M83.3,67.52H48.61V89.65h29c2.69,0,4.69.6,6,1.8a6.18,6.18,0,0,1,2,4.81,6,6,0,0,1-2,4.78c-1.35,1.18-3.34,1.77-6,1.77h-29v28.51q0,5.43-2.46,8.05A8.28,8.28,0,0,1,39.84,142a8.31,8.31,0,0,1-6.38-2.66q-2.46-2.66-2.46-8V64.74a14.57,14.57,0,0,1,1.13-6.17,7,7,0,0,1,3.52-3.48A14.9,14.9,0,0,1,41.79,54H83.3c2.81,0,4.89.62,6.26,1.86a6.28,6.28,0,0,1,2,4.87,6.36,6.36,0,0,1-2,4.93C88.19,66.9,86.11,67.52,83.3,67.52Z"/><path d="M138.45,106.82H122.32v24.5q0,5.25-2.49,8a8.8,8.8,0,0,1-12.69,0q-2.43-2.69-2.43-7.87V64.74c0-3.85.89-6.61,2.66-8.26S112,54,115.85,54h22.6q10,0,15.41,1.53a23.08,23.08,0,0,1,9.22,4.9,22.13,22.13,0,0,1,5.9,8.38A29.32,29.32,0,0,1,171,80q0,13.22-8.18,20T138.45,106.82Zm-4.27-39.66H122.32V93.6h11.86a35.35,35.35,0,0,0,10.4-1.3A12.12,12.12,0,0,0,151,88.05a12.63,12.63,0,0,0,2.19-7.73A13.09,13.09,0,0,0,149.77,71Q146,67.16,134.18,67.16Z"/><circle class="cls-1" cx="98" cy="98" r="90"/></g></g></svg>