<svg xmlns="http://www.w3.org/2000/svg" xmlns:xlink="http://www.w3.org/1999/xlink" viewBox="0 0 727.53 785.56"><defs><style>.cls-1{fill:none;}.cls-2{clip-path:url(#clip-path);}.cls-3{fill:#db884c;}</style><clipPath id="clip-path" transform="translate(-35.74 -6.72)"><rect class="cls-1" width="799" height="799"/></clipPath></defs><g id="Layer_2" data-name="Layer 2"><g id="Layer_1-2" data-name="Layer 1"><g class="cls-2"><g class="cls-2"><path class="cls-3" d="M704.33,8.33c4.8,32.18,9.73,64.36,14.38,96.56,7.14,49.44,13.84,98.93,21.31,148.32,1.93,12.76,1.74,19.66-14.92,17.16-76.82-11.57-153.81-22.14-230.72-33.19-5.38-.77-10.62-2.51-19.15-4.58,28.26-28.2,54.27-55.28,81.6-80.95,11.86-11.14,11.56-16.43-2.61-24.83C433.35,55.12,269.29,80,173.32,183.45c-54.7,59-82,128.19-85.58,207.75C86.79,412.61,76.68,424,60.06,423c-15-.87-24.57-11.69-24.32-29.31,1-73,20.73-140.85,62.86-200.34C176.11,83.91,283.1,30.29,417.48,33.91c62.51,1.68,120.4,21.23,173,54.38,15,9.42,22.6,7.52,33.63-4.51C648.32,57.39,673.93,32.32,699,6.72l5.38,1.61" transform="translate(-35.74 -6.72)"/><path class="cls-3" d="M95.59,792.28C89.88,754.15,85,722.07,80.32,690,73.19,640.52,66.71,591,59,541.65c-2.36-15,.26-19.64,16.48-17.19,75.6,11.43,151.37,21.81,227.06,32.66,6.07.87,12,2.49,21.88,4.57-25.49,25.33-49,48.7-72.52,72.08-4.39,4.36-8.44,9.13-13.2,13-9.66,7.9-7.89,13,2.47,18.82,92.45,52.13,189,59.84,284.86,15.69,116.8-53.78,178.09-148.61,185.26-277.55,1.19-21.51,10.81-32.92,27.29-32.27,16.29.64,25.05,12.84,24.72,34.44C760.6,582,622.77,735.38,448.48,757.71c-88.34,11.32-169.53-7.22-244.55-54-10.49-6.54-16.48-5.87-24.82,3-26.17,27.76-53.21,54.69-83.52,85.62" transform="translate(-35.74 -6.72)"/></g></g></g></g></svg>