<svg xmlns="http://www.w3.org/2000/svg" viewBox="0 0 196 196"><defs><style>.cls-1{fill:none;stroke:#000;stroke-miterlimit:10;stroke-width:16px;}</style></defs><g id="Layer_2" data-name="Layer 2"><g id="Layer_2-2" data-name="Layer 2"><path d="M113.8,126.82a12.5,12.5,0,0,1,7,2.11,9.05,9.05,0,0,1,3.59,4.58,6.48,6.48,0,0,1-.49,5.12c-.87,1.69-2.66,3-5.38,3.89a28.69,28.69,0,0,1-6.94,1.23q-4,.27-8,.21c-2.66-.05-5.14-.14-7.42-.28s-4-.2-5.23-.2H81.33a10.71,10.71,0,0,1-5.88-1.57,9.42,9.42,0,0,1-3.51-3.76,6.79,6.79,0,0,1-.49-4.64,8.45,8.45,0,0,1,3-4.51,10.34,10.34,0,0,1,6-2.18,52.29,52.29,0,0,1,7.51,0V72.73c-2.51,0-4.84,0-7-.07a13.49,13.49,0,0,1-6.53-2,7.67,7.67,0,0,1-3.27-3.49A5.86,5.86,0,0,1,71,63.24a9.42,9.42,0,0,1,2.2-3.76,9.71,9.71,0,0,1,4.08-2.6A14.15,14.15,0,0,1,82,56.06q8.33,0,16.73-.07t16.89.07a3.18,3.18,0,0,1,1.55.41,9,9,0,0,0,1.55.69,9.46,9.46,0,0,1,5.06,5.05,6.36,6.36,0,0,1-1,6.42,7.89,7.89,0,0,1-2.86,2.53,12.72,12.72,0,0,1-3.75,1.23,26,26,0,0,1-4.16.34h-4.08v54.36c.87,0,1.65,0,2.36-.07s1.5-.11,2.37-.2Z"/><circle class="cls-1" cx="98" cy="98" r="90"/></g></g></svg>