<?xml version="1.0" encoding="UTF-8"?>
<svg width="15px" height="29px" viewBox="0 0 15 29" version="1.1" xmlns="http://www.w3.org/2000/svg" xmlns:xlink="http://www.w3.org/1999/xlink">
    <!-- Generator: Sketch 59.1 (86144) - https://sketch.com -->
    <title>mastered</title>
    <desc>Created with Sketch.</desc>
    <g id="Skillstar" stroke="none" stroke-width="1" fill="none" fill-rule="evenodd">
        <g id="Learning-Zone-1" transform="translate(-292.000000, -250.000000)" fill="#000000" fill-rule="nonzero">
            <g id="mastered" transform="translate(292.000000, 250.000000)">
                <polygon id="Path" points="5.14148936 0.29 0.111702128 0.29 0.111702128 8.47373626 5.14148936 12.1927473"></polygon>
                <polygon id="Path" points="9.79787234 0.29 9.79787234 12.1927473 14.8244681 8.47373626 14.8244681 0.29"></polygon>
                <path d="M9.79148936,15.6153846 C9.47234043,15.2393407 9.45,14.2354945 9.45,14.2354945 L5.4893617,14.2354945 C5.4893617,14.2354945 5.45425532,15.2393407 5.14787234,15.6153846 C1.99110967,16.7429191 0.104474986,19.9747714 0.677501374,23.2732417 C1.25052776,26.571712 4.11703738,28.9802428 7.46968085,28.9802428 C10.8223243,28.9802428 13.6888339,26.571712 14.2618603,23.2732417 C14.8348867,19.9747714 12.948252,16.7429191 9.79148936,15.6153846 L9.79148936,15.6153846 Z M9.62553191,25.3989011 L7.46808511,24.2707692 L5.31382979,25.4020879 L5.72553191,23.0056044 L3.98297872,21.3102198 L6.38297872,20.9596703 L7.45851064,18.7798901 L8.53723404,20.9596703 L10.9468085,21.3102198 L9.20425532,23.0056044 L9.62553191,25.3989011 Z" id="Shape"></path>
            </g>
        </g>
    </g>
</svg>