<?xml version="1.0" encoding="UTF-8"?>
<svg width="24px" height="24px" viewBox="0 0 24 24" version="1.1" xmlns="http://www.w3.org/2000/svg" xmlns:xlink="http://www.w3.org/1999/xlink">
    <!-- Generator: Sketch 59.1 (86144) - https://sketch.com -->
    <title>not_started</title>
    <desc>Created with Sketch.</desc>
    <g id="Skillstar" stroke="none" stroke-width="1" fill="none" fill-rule="evenodd">
        <g id="Learning-Zone-1" transform="translate(-290.000000, -353.000000)" fill="#000000">
            <g id="icon/small" transform="translate(290.000000, 353.000000)">
                <g id="work">
                    <path d="M5.41206397,16 L0.479762355,20.9311337 C0.172915563,21.2318954 0,21.6435558 0,22.0733048 C0,22.5030539 0.172915563,22.9147143 0.479762355,23.215476 L0.784225418,23.520055 C1.08487265,23.8270186 1.49637639,24 1.9259619,24 C2.35554741,24 2.76705116,23.8270186 3.06769839,23.520055 L8,18.5858755 L5.41206397,16 Z M2.36743334,22.0915796 C2.23940503,22.2130259 2.03876706,22.2130259 1.91073875,22.0915796 L1.81939983,22.0002059 C1.69799977,21.8721288 1.69799977,21.6714145 1.81939983,21.5433374 L5.62518811,17.7361002 C5.75321642,17.6146539 5.9538544,17.6146539 6.08188271,17.7361002 L6.17322162,17.8274739 C6.29462168,17.9555509 6.29462168,18.1562653 6.17322162,18.2843423 L2.36743334,22.0915796 Z" id="Shape" fill-rule="nonzero"></path>
                    <path d="M13,9.73228406 L10.7204936,12 L7.82858255,9.11874656 C7.74225602,9.0435684 7.67271422,8.95118771 7.62444766,8.84756977 C6.11176774,9.4621502 4.37700712,9.11917736 3.2144836,7.97569276 C2.05196008,6.83220815 1.68550728,5.10837964 2.28291779,3.59351938 L4.05208692,5.35616854 C4.69560952,5.96435118 5.70829719,5.95104095 6.33549289,5.32615667 C6.96268859,4.70127239 6.97604806,3.6923168 6.36561578,3.0511658 L4.59644665,1.28851663 C6.12474148,0.682428465 7.86883646,1.0493151 9.02076699,2.21921366 C10.1726975,3.38911221 10.5074435,5.13349272 9.86993155,6.64425832 C9.971999,6.71205252 10.040044,6.77984671 10.1421114,6.84764091 L13,9.73228406 Z" id="Path" fill-rule="nonzero"></path>
                    <path d="M22.7272921,19.4042698 L20.93377,17.608196 C20.526514,17.1782525 19.9183328,17.0035222 19.3454083,17.15186 C18.7724839,17.3001977 18.3250868,17.7482314 18.1769598,18.321971 C18.0288327,18.8957105 18.2033148,19.504757 18.6326475,19.9125925 L20.4261695,21.7086663 C18.917736,22.3133155 17.1946024,21.9593399 16.0457042,20.8088072 C14.8968061,19.6582744 14.5433334,17.9326891 15.1471235,16.4221095 L12,13.2705084 L14.2672825,11 L17.4144061,14.1516012 C18.9215278,13.5574801 20.6370794,13.91706 21.779771,15.0665821 C22.9385417,16.1897596 23.3119452,17.8991757 22.7272921,19.4042698 Z" id="Path" fill-rule="nonzero"></path>
                    <path d="M10.8879368,16.7954268 L10.8164371,16.8665328 C10.7385332,16.9515498 10.6282233,17 10.5125637,17 C10.3969041,17 10.2865942,16.9515498 10.2086902,16.8665328 L10.1729404,16.8309798 L7.16995582,13.8445273 L7.134206,13.8089743 C7.04871845,13.7314992 7,13.6217966 7,13.5067737 C7,13.3917508 7.04871845,13.2820483 7.134206,13.2045732 L7.20570564,13.1334672 C7.2836096,13.0484502 7.39391946,13 7.50957908,13 C7.6252387,13 7.73554856,13.0484502 7.81345252,13.1334672 L8.56419868,13.8800803 L10.1729404,15.4799656 L10.9236866,16.2265787 C11.0373554,16.4037687 11.0229057,16.6336911 10.8879368,16.7954268 L10.8879368,16.7954268 Z" id="Path" fill-rule="nonzero"></path>
                    <polygon id="Path" fill-rule="nonzero" points="24 1.37634409 20.972043 5.36774194 20.5591398 4.95483871 9.5483871 16 8 14.4516129 10.3741935 12.0774194 19.0451613 3.44086022 18.6322581 3.02795699 22.6236559 0"></polygon>
                </g>
            </g>
        </g>
    </g>
</svg>