<?xml version="1.0" encoding="UTF-8"?>
<svg width="26px" height="29px" viewBox="0 0 26 29" version="1.1" xmlns="http://www.w3.org/2000/svg" xmlns:xlink="http://www.w3.org/1999/xlink">
    <!-- Generator: Sketch 59.1 (86144) - https://sketch.com -->
    <title>not_mastered</title>
    <desc>Created with Sketch.</desc>
    <g id="Skillstar" stroke="none" stroke-width="1" fill="none" fill-rule="evenodd">
        <g id="Learning-Zone-1" transform="translate(-288.000000, -300.000000)" fill="#000000" fill-rule="nonzero">
            <g id="not_mastered" transform="translate(288.000000, 300.000000)">
                <path d="M20.9934884,6.37402062 C20.6694568,6.11767334 20.2317442,6.05174824 19.8452328,6.20107867 C19.4587213,6.35040909 19.1821312,6.69230819 19.1196514,7.09798589 C19.0571715,7.50366359 19.218294,7.91148779 19.5423256,8.16783505 C23.4614824,11.3209592 24.5152112,16.8068014 22.0381476,21.1613922 C19.5610839,25.5159829 14.272991,27.4740038 9.51297193,25.7990859 C4.75295284,24.124168 1.90413184,19.3029941 2.76536287,14.3798369 C3.6265939,9.45667971 7.94762805,5.86206666 13,5.8657732 L11.6395349,7.21113402 C11.2108594,7.66051824 11.2212528,8.36553351 11.662993,8.80236935 C12.1047332,9.23920519 12.8176636,9.24948318 13.272093,8.82556701 L16.5976744,5.53690722 C16.8155366,5.32354253 16.9381086,5.03290743 16.9381086,4.72969072 C16.9381086,4.42647402 16.8155366,4.13583892 16.5976744,3.92247423 L13.272093,0.633814433 C13.0563329,0.418370984 12.7624349,0.297159828 12.455814,0.297159828 C12.149193,0.297159828 11.855295,0.418370984 11.6395349,0.633814433 C11.4218956,0.841192661 11.2989378,1.12720684 11.2989378,1.42608247 C11.2989378,1.72495811 11.4218956,2.01097229 11.6395349,2.21835052 L13,3.56371134 C6.79474718,3.54517254 1.47903885,7.95144636 0.413668976,13.9967181 C-0.651700901,20.0419898 2.84335555,25.9667152 8.68913008,28.0250563 C14.5349046,30.0833974 21.0299188,27.6762511 24.0677764,22.3255071 C27.1056341,16.9747631 25.8021326,10.2378158 20.9813953,6.37402062 L20.9934884,6.37402062 Z" id="Path"></path>
                <path d="M13,11.1276289 C10.2116042,11.1276289 7.95116279,13.3629742 7.95116279,16.1204124 C7.95116279,18.8778506 10.2116042,21.1131959 13,21.1131959 C15.7883958,21.1131959 18.0488372,18.8778506 18.0488372,16.1204124 C18.0438453,13.3650215 15.7863254,11.1325654 13,11.1276289 Z M13,18.811134 C11.4972717,18.811134 10.2790698,17.6064569 10.2790698,16.1204124 C10.2790698,14.6343678 11.4972717,13.4296907 13,13.4296907 C14.5027283,13.4296907 15.7209302,14.6343678 15.7209302,16.1204124 C15.7209302,17.6064569 14.5027283,18.811134 13,18.811134 L13,18.811134 Z" id="Shape"></path>
            </g>
        </g>
    </g>
</svg>