<svg xmlns="http://www.w3.org/2000/svg" viewBox="0 0 196 196"><defs><style>.cls-1{fill:none;stroke:#000;stroke-miterlimit:10;stroke-width:16px;}</style></defs><g id="Layer_2" data-name="Layer 2"><g id="Layer_1-2" data-name="Layer 1"><path d="M62.43,107.26H47.1v24.49q0,5.25-2.37,8a7.57,7.57,0,0,1-6,2.71,7.64,7.64,0,0,1-6.09-2.68q-2.31-2.69-2.31-7.88V65.17c0-3.85.85-6.61,2.54-8.26s4.37-2.48,8.06-2.48H62.43Q72,54.43,77.08,56a21.36,21.36,0,0,1,8.77,4.9,22.11,22.11,0,0,1,5.61,8.38A30.86,30.86,0,0,1,93.37,80.4q0,13.21-7.78,20T62.43,107.26ZM58.37,67.59H47.1V94H58.37a32.42,32.42,0,0,0,9.89-1.29,11.59,11.59,0,0,0,6.06-4.25,13.14,13.14,0,0,0,2.09-7.73,13.49,13.49,0,0,0-3.21-9.33Q69.59,67.59,58.37,67.59Z"/><path d="M139.42,107.26H124.09v24.49q0,5.25-2.37,8a8.09,8.09,0,0,1-12.06,0q-2.31-2.69-2.31-7.88V65.17c0-3.85.85-6.61,2.54-8.26s4.37-2.48,8.06-2.48h21.47q9.53,0,14.65,1.54a21.42,21.42,0,0,1,8.77,4.9,22.11,22.11,0,0,1,5.61,8.38,30.86,30.86,0,0,1,1.91,11.15q0,13.21-7.78,20T139.42,107.26Zm-4.06-39.67H124.09V94h11.27a32.42,32.42,0,0,0,9.89-1.29,11.59,11.59,0,0,0,6.06-4.25,13.14,13.14,0,0,0,2.09-7.73,13.45,13.45,0,0,0-3.22-9.33Q146.58,67.59,135.36,67.59Z"/><circle class="cls-1" cx="98" cy="98" r="90"/></g></g></svg>