<?xml version="1.0" encoding="UTF-8"?>
<svg width="46px" height="45px" viewBox="0 0 46 45" version="1.1" xmlns="http://www.w3.org/2000/svg" xmlns:xlink="http://www.w3.org/1999/xlink">
    <!-- Generator: Sketch 59.1 (86144) - https://sketch.com -->
    <title>practice</title>
    <desc>Created with Sketch.</desc>
    <g id="Skillstar" stroke="none" stroke-width="1" fill="none" fill-rule="evenodd">
        <g id="Scorecard" transform="translate(-164.000000, -707.000000)" fill="#000000" fill-rule="nonzero">
            <g id="practice" transform="translate(163.000000, 707.000000)">
                <g transform="translate(1.000000, 0.000000)">
                    <path d="M46,22.1157434 C46,16.6404178 41.5361934,12.2017895 36.0298089,12.2017895 L27.5934933,12.2017895 L27.5934933,11.4391776 C27.5934933,10.1756409 26.5633841,9.15134209 25.29268,9.15134209 L23.7588044,9.15134209 L23.7588044,8.38873025 C23.7588044,7.96755136 24.1021742,7.62611841 24.5257422,7.62611841 L35.2628711,7.62611841 C37.3807113,7.62611841 39.09756,5.91895366 39.09756,3.81305921 C39.09756,1.70716476 37.3807113,0 35.2628711,0 L22.9918667,0 L22.9918667,1.52522368 L35.2628711,1.52522368 C36.5335752,1.52522368 37.5636844,2.54952254 37.5636844,3.81305921 C37.5636844,5.07659588 36.5335752,6.10089473 35.2628711,6.10089473 L24.5257422,6.10089473 C23.2550381,6.10089473 22.2249289,7.12519358 22.2249289,8.38873025 L22.2249289,9.15134209 L20.6910533,9.15134209 C19.4203492,9.15134209 18.39024,10.1756409 18.39024,11.4391776 L18.39024,12.2017895 L9.95392442,12.2017895 C5.8909661,12.2085159 2.23852423,14.666088 0.721443211,18.4139318 C-0.795637807,22.1617755 0.126144743,26.4501084 3.05148442,29.2537902 L3.05148442,39.091483 C3.04870131,42.0742088 5.28417453,44.5902831 8.26128402,44.9552271 C11.2383935,45.3201711 14.0214723,43.4192876 14.7472855,40.5251932 L16.8947113,31.9534361 C17.1339931,32.0055603 17.3783502,32.031137 17.6233022,32.0296973 C19.4458095,32.0300672 21.0167959,30.754863 21.3812973,28.97925 L24.602436,28.97925 C24.9669374,30.754863 26.5379238,32.0300672 28.3604311,32.0296973 C28.6181902,32.0340327 28.8755773,32.0084392 29.1273689,31.9534361 L31.2747947,40.5251932 C32.0570972,43.3487563 34.8032334,45.1749149 37.7263309,44.8154132 C40.6494284,44.4559115 42.8653595,42.0194853 42.9322489,39.091483 L42.9322489,29.2537902 C44.8880543,27.3879748 45.9956535,24.8108116 46,22.1157434 L46,22.1157434 Z M19.9241155,11.4391776 C19.9241155,11.0179987 20.2674853,10.6765658 20.6910533,10.6765658 L25.29268,10.6765658 C25.716248,10.6765658 26.0596178,11.0179987 26.0596178,11.4391776 L26.0596178,12.2017895 L19.9241155,12.2017895 L19.9241155,11.4391776 Z M13.2594262,40.1591396 C12.7216947,42.3071154 10.6559947,43.7178997 8.44677229,43.4459752 C6.23754986,43.1740508 4.58014431,41.3050041 4.5853477,39.091483 L4.5853477,30.4587169 C7.6701592,32.4341757 11.5998254,32.5544517 14.8009712,30.7713878 C14.9983442,30.9929998 15.2195165,31.1924664 15.4605377,31.366225 L13.2594262,40.1591396 Z M9.95392442,27.4540263 C6.98894815,27.4540263 4.58535998,25.0639956 4.58535998,22.1157434 C4.58535998,19.1674912 6.98894815,16.7774605 9.95392442,16.7774605 C12.9189007,16.7774605 15.3224889,19.1674912 15.3224889,22.1157434 C15.3224889,25.0639956 12.9189007,27.4540263 9.95392442,27.4540263 L9.95392442,27.4540263 Z M17.6233022,30.5044736 C16.3525981,30.5044736 15.3224889,29.4801748 15.3224889,28.2166381 C15.3224889,26.9531015 16.3525981,25.9288026 17.6233022,25.9288026 C18.8940063,25.9288026 19.9241155,26.9531015 19.9241155,28.2166381 C19.9241155,29.4801748 18.8940063,30.5044736 17.6233022,30.5044736 Z M24.602436,27.4540263 L21.3812973,27.4540263 C21.1743843,26.3710344 20.4989831,25.4333152 19.5344419,24.8898738 C18.5699006,24.3464323 17.4138216,24.2522596 16.3731936,24.6323625 C17.62581,21.4730818 16.3666174,17.8778895 13.4113435,16.1758158 C10.4560697,14.4737422 6.69329761,15.1765616 4.56061871,17.8289751 C2.42793981,20.4813887 2.56660175,24.2858763 4.88677685,26.7778225 C7.20695194,29.2697688 11.0110167,29.6999026 13.8346296,27.7895755 C13.7332893,28.3523027 13.7971945,28.9321484 14.0186946,29.4596954 C12.7776674,30.1522062 11.3769898,30.5122259 9.95392442,30.5045962 C5.29467599,30.5045962 1.51760886,26.7487112 1.51760886,22.1157434 C1.51760886,17.4827756 5.29467599,13.7270131 9.95392442,13.7270131 L36.0298089,13.7270131 C40.6890573,13.7270131 44.4661244,17.4827756 44.4661244,22.1157434 C44.4661244,26.7487112 40.6890573,30.5045962 36.0298089,30.5045962 C34.6072217,30.5084231 33.2075008,30.1486492 31.9650387,29.4596954 C32.1824042,28.9310965 32.2461784,28.3524392 32.1491037,27.7895755 C34.9727166,29.6999026 38.7767814,29.2697688 41.0969565,26.7778225 C43.4171316,24.2858763 43.5557935,20.4813887 41.4231146,17.8289751 C39.2904357,15.1765616 35.5276636,14.4737422 32.5723898,16.1758158 C29.6171159,17.8778895 28.3579233,21.4730818 29.6105397,24.6323625 C28.5699117,24.2522596 27.4138327,24.3464323 26.4492914,24.8898738 C25.4847502,25.4333152 24.809349,26.3710344 24.602436,27.4540263 L24.602436,27.4540263 Z M30.6612444,22.1157434 C30.6612444,19.1674912 33.0648326,16.7774605 36.0298089,16.7774605 C38.9947852,16.7774605 41.3983733,19.1674912 41.3983733,22.1157434 C41.3983733,25.0639956 38.9947852,27.4540263 36.0298089,27.4540263 C33.0648326,27.4540263 30.6612444,25.0639956 30.6612444,22.1157434 L30.6612444,22.1157434 Z M26.0596178,28.2166381 C26.0596178,26.9531015 27.089727,25.9288026 28.3604311,25.9288026 C29.6311352,25.9288026 30.6612444,26.9531015 30.6612444,28.2166381 C30.6612444,29.4801748 29.6311352,30.5044736 28.3604311,30.5044736 C27.089727,30.5044736 26.0596178,29.4801748 26.0596178,28.2166381 Z M41.3983856,39.091483 C41.403589,41.3050041 39.7461834,43.1740508 37.536961,43.4459752 C35.3277386,43.7178997 33.2620386,42.3071154 32.7243071,40.1591396 L30.5155263,31.366225 C30.7605535,31.1945576 30.9844942,30.9949156 31.1827621,30.7713878 C34.3839079,32.5544517 38.3135741,32.4341757 41.3983856,30.4587169 L41.3983856,39.091483 Z" id="Shape"></path>
                    <polygon id="Path" points="10.75 19 9.25 19 9.25 21.25 7 21.25 7 22.75 9.25 22.75 9.25 25 10.75 25 10.75 22.75 13 22.75 13 21.25 10.75 21.25"></polygon>
                    <rect id="Rectangle" x="35" y="18" width="2" height="2"></rect>
                    <rect id="Rectangle" x="37" y="21" width="2" height="2"></rect>
                    <rect id="Rectangle" x="33" y="21" width="2" height="2"></rect>
                    <rect id="Rectangle" x="35" y="23" width="2" height="2"></rect>
                    <rect id="Rectangle" x="19" y="20" width="2" height="2"></rect>
                    <rect id="Rectangle" x="22" y="20" width="2" height="2"></rect>
                    <rect id="Rectangle" x="25" y="20" width="2" height="2"></rect>
                </g>
            </g>
        </g>
    </g>
</svg>