<?xml version="1.0" encoding="UTF-8"?>
<svg width="72px" height="44px" viewBox="0 0 72 44" version="1.1" xmlns="http://www.w3.org/2000/svg" xmlns:xlink="http://www.w3.org/1999/xlink">
    <!-- Generator: Sketch 59.1 (86144) - https://sketch.com -->
    <title>put_toothpaste_on</title>
    <desc>Created with Sketch.</desc>
    <g id="Skillstar" stroke="none" stroke-width="1" fill="none" fill-rule="evenodd">
        <g id="Learning-Zone-2" transform="translate(-153.000000, -814.000000)" fill="#000000">
            <g id="put_toothpaste_on" transform="translate(152.000000, 810.000000)">
                <g id="symbol/toothbrush" transform="translate(29.000000, 13.000000)">
                    <g id="tooothbrush" transform="translate(22.307692, 22.000000) rotate(-345.000000) translate(-22.307692, -22.000000) translate(4.000000, 5.000000)">
                        <path d="M36.2707359,4.28653954 L35.5676659,3.59210247 C35.0946165,3.12292277 34.3285332,3.12292277 33.8554838,3.59210247 L30.4063053,0.169226239 C30.1773545,-0.0564087464 29.808115,-0.0564087464 29.5791642,0.169226239 L29.5791642,0.169226239 L21.9446516,7.73817943 C21.7175554,7.9656571 21.7175554,8.33252079 21.9446516,8.55999845 L21.9446516,8.55999845 L25.3896944,11.9869838 L22.1059441,15.2496053 L17.1141474,15.8248786 C15.8787217,15.9692438 14.7280142,16.5220817 13.84694,17.3945529 L0.563053528,30.6052937 C-0.198468748,31.3925962 -0.185990208,32.6405639 0.591124817,33.4126787 C1.36823984,34.1847935 2.6242894,34.1971917 3.41669041,33.4405693 L15.6707862,21.2612114 C16.240892,20.6983025 16.9565399,20.3029625 17.738639,20.118883 L21.8743446,19.1491366 C22.8704104,18.9149355 23.7811831,18.4098349 24.5046534,17.6904078 L36.2707359,5.99181401 C36.7302675,5.51507266 36.7302675,4.76328089 36.2707359,4.28653954 Z M23.2101775,8.15730713 L24.1613898,7.20810616 L25.7205508,8.75723502 C25.9569687,8.91651543 26.2739145,8.88658355 26.4758963,8.68590134 C26.6778781,8.48521912 26.7080039,8.17031269 26.5476919,7.935416 L24.9885309,6.38628714 L26.4236208,4.94399476 L28.4459808,6.95334227 C28.6767557,7.17512033 29.0429329,7.1752195 29.2738295,6.95356646 C29.504726,6.73191342 29.5172183,6.36830414 29.3020719,6.13152324 L29.3020719,6.13152324 L27.2797118,4.12217574 L28.359131,3.04970191 L30.1622987,4.84537647 C30.3080971,5.00583592 30.5303627,5.07452673 30.7420425,5.02454533 C30.9537224,4.97456393 31.1211215,4.81386634 31.1786761,4.60539163 C31.2362306,4.39691691 31.1747791,4.17384993 31.0183897,4.02355745 L31.0183897,4.02355745 L29.2152221,2.22788289 L29.9968704,1.45126391 L33.0200712,4.45912153 L26.2333783,11.1610557 L23.2101775,8.15730713 Z M23.652698,16.8521524 C23.0836171,17.4172518 22.367713,17.814156 21.5848452,17.9985899 L17.4491396,18.9642273 C16.4637588,19.197999 15.5622654,19.6970279 14.843645,20.4065197 L2.57300646,32.6023139 C2.37086154,32.8368415 2.0534639,32.9389984 1.75130877,32.8667836 C1.44915364,32.7945689 1.21323746,32.5601707 1.14055508,32.2599597 C1.06787269,31.9597488 1.17069112,31.6443934 1.40673747,31.4435491 L1.40673747,31.4435491 L14.6906239,18.2451356 C15.3806306,17.5605526 16.2822793,17.1263778 17.2506257,17.0124071 L22.4492077,16.4124792 C22.5839422,16.3993619 22.7097908,16.3397504 22.8048784,16.2440063 L34.723982,4.43035787 L35.4270519,5.12479494 L35.8406225,4.71388543 L23.652698,16.8521524 Z" id="Shape" fill-rule="nonzero"></path>
                    </g>
                </g>
                <g id="symbol/toothpaste" transform="translate(28.500000, 17.500000) rotate(86.000000) translate(-28.500000, -17.500000) translate(13.000000, -9.000000)" fill-rule="nonzero">
                    <g id="toothpaste">
                        <path d="M1.10288462,52.0774074 C1.66533175,52.5711894 2.45059306,52.8517739 3.27288462,52.8527852 L27.8761538,52.8527852 C28.7042189,52.85445 29.4958109,52.5724937 30.0612193,52.0744818 C30.6266276,51.5764698 30.9148903,50.9072896 30.8569231,50.2273148 L27.0594231,13.1371296 C27.0470982,13.0485603 27.016874,12.9623099 26.97,12.8819444 C26.9564548,12.8564228 26.9405089,12.8318109 26.9223077,12.8083333 L26.8746154,12.7298148 L20.7819231,5.94777778 L20.7819231,5.94777778 L20.7819231,1.84518519 C20.7819252,1.3549602 20.5449456,0.884884889 20.1232853,0.538704128 C19.7016251,0.192523367 19.1299483,-0.00130378986 18.5344231,-6.5351602e-06 L12.6146154,-6.5351602e-06 C11.3780073,0.00269656674 10.3763527,0.827236594 10.3730769,1.84518519 L10.3730769,5.93796296 C10.3730769,5.93796296 10.3730769,5.93796296 10.3730769,5.93796296 L4.26846154,12.7298148 C4.24428461,12.7631329 4.22239142,12.7975386 4.20288462,12.8328704 L4.20288462,12.8574074 C4.14268912,12.9565786 4.11010415,13.065548 4.1075,13.1763889 L0.31,50.2469444 C0.25699796,50.9209223 0.54381989,51.5830829 1.10288462,52.0774074 Z M28.6153846,50.9830556 C28.4187876,51.1548403 28.1449735,51.2524535 27.8582692,51.252963 L3.27288462,51.252963 C2.98632668,51.251877 2.71277686,51.1543581 2.51576923,50.9830556 C2.3233749,50.8152795 2.22221751,50.5902719 2.23557692,50.3598148 L2.62307692,46.5369444 L28.5259615,46.5369444 L28.9134615,50.3401852 C28.9265658,50.5792119 28.8186284,50.8120033 28.6153846,50.9830556 L28.6153846,50.9830556 Z M5.96153846,14.0057407 L25.1934615,14.0057407 L28.3590385,44.9224074 L2.79,44.9224074 L5.96153846,14.0057407 Z M12.3165385,1.84518519 C12.3165385,1.70967087 12.449992,1.59981481 12.6146154,1.59981481 L18.5344231,1.59981481 C18.6990464,1.59981481 18.8325,1.70967087 18.8325,1.84518519 L18.8325,5.61898148 L12.3165385,5.61898148 L12.3165385,1.84518519 Z M11.6309615,7.24333333 L19.5121154,7.24333333 L24.1621154,12.4255556 L6.98096154,12.4255556 L11.6309615,7.24333333 Z" id="Shape"></path>
                        <path d="M15.5775,40.834537 C19.8101923,40.834537 23.1248077,35.8437037 23.1248077,29.4689815 C23.1248077,23.0942593 19.8101923,18.1034259 15.5775,18.1034259 C11.3448077,18.1034259 8.03019231,23.0991667 8.03019231,29.4689815 C8.03019231,35.8387963 11.3269231,40.834537 15.5775,40.834537 Z M15.5775,19.7326852 C18.2780769,19.7326852 21.1753846,23.6586111 21.1753846,29.4935185 C21.1753846,35.3284259 18.2780769,39.2592593 15.5775,39.2592593 C12.8769231,39.2592593 9.97365385,35.3333333 9.97365385,29.4935185 C9.97365385,23.6537037 12.8709615,19.7081481 15.5775,19.7081481 L15.5775,19.7326852 Z" id="Shape"></path>
                    </g>
                </g>
            </g>
        </g>
    </g>
</svg>