<svg xmlns="http://www.w3.org/2000/svg" viewBox="0 0 137.43 197.31"><defs><style>.cls-1{fill:#b4d9a1;}</style></defs><g id="Layer_2" data-name="Layer 2"><g id="Layer_2-2" data-name="Layer 2"><path class="cls-1" d="M72,137C35,139.19,1.79,110.5.07,71.39a68.7,68.7,0,0,1,137.28-5.56C139,102.44,110.43,135.5,72,137ZM68.86,42.92A25.92,25.92,0,0,0,43,68.47,25.58,25.58,0,0,0,68.56,94.22C84,94.12,94,82.75,94.37,68.76S82.89,43,68.86,42.92Z"/><path class="cls-1" d="M30.26,135.68c25.68,13.39,51.14,13.46,76.61.09,1,.68.55,1.7.55,2.54q0,26.25,0,52.49c0,6.19-2.85,7.92-8.42,5.15-9.33-4.65-18.66-9.27-27.94-14a4.68,4.68,0,0,0-4.79,0q-14.37,7.35-28.88,14.47c-4.37,2.15-7.43.37-7.45-4.52-.07-18.42,0-36.84,0-55.26A4.31,4.31,0,0,1,30.26,135.68Z"/></g></g></svg>