<svg xmlns="http://www.w3.org/2000/svg" viewBox="0 0 196 196"><defs><style>.cls-1{fill:none;stroke:#000;stroke-miterlimit:10;stroke-width:16px;}</style></defs><g id="Layer_2" data-name="Layer 2"><g id="SP"><path d="M92.34,115a26,26,0,0,1-3.78,13.87,25.55,25.55,0,0,1-11.08,9.64A39.76,39.76,0,0,1,60.2,142q-12,0-19.77-4.76a26.9,26.9,0,0,1-9-9.14A21.5,21.5,0,0,1,28,117a7.62,7.62,0,0,1,2.07-5.37,6.88,6.88,0,0,1,5.28-2.23,6.07,6.07,0,0,1,4.39,1.74,13.92,13.92,0,0,1,3.06,5.16,35.61,35.61,0,0,0,3.34,6.8,13.82,13.82,0,0,0,5.06,4.5,17.89,17.89,0,0,0,8.56,1.77q7.29,0,11.84-3.57a10.9,10.9,0,0,0,4.56-8.91A9.68,9.68,0,0,0,73.7,110a15.81,15.81,0,0,0-6.35-4,106.87,106.87,0,0,0-10.41-3,73.34,73.34,0,0,1-14.61-5A23.8,23.8,0,0,1,33,90.13,21.07,21.07,0,0,1,29.55,77.8a22,22,0,0,1,3.64-12.48,23.19,23.19,0,0,1,10.55-8.39A41.39,41.39,0,0,1,60,54a38.47,38.47,0,0,1,12.89,1.94,26.85,26.85,0,0,1,9,5.17,21.58,21.58,0,0,1,5.25,6.76,16.32,16.32,0,0,1,1.65,6.91,8.39,8.39,0,0,1-2.07,5.54,6.46,6.46,0,0,1-5.16,2.47,5.75,5.75,0,0,1-4.28-1.48,20.09,20.09,0,0,1-3.18-4.85A21.9,21.9,0,0,0,68.81,69q-3.09-2.7-9.94-2.7-6.34,0-10.24,2.93t-3.9,7a7.41,7.41,0,0,0,1.33,4.41,11.32,11.32,0,0,0,3.64,3.2,24.6,24.6,0,0,0,4.7,2.09c1.58.5,4.2,1.23,7.84,2.2a116.28,116.28,0,0,1,12.4,3.72,36.88,36.88,0,0,1,9.44,4.93,20.1,20.1,0,0,1,6.08,7.34A24.6,24.6,0,0,1,92.34,115Z"/><path d="M137.68,107.4h-15v24.09q0,5.17-2.32,7.84a7.9,7.9,0,0,1-11.82,0c-1.51-1.76-2.26-4.35-2.26-7.75V66c0-3.8.82-6.51,2.48-8.13s4.29-2.44,7.9-2.44h21Q147,55.45,152,57a21.06,21.06,0,0,1,8.59,4.82A21.71,21.71,0,0,1,166.12,70,30.38,30.38,0,0,1,168,81q0,13-7.62,19.71T137.68,107.4Zm-4-39h-11v26h11a31.27,31.27,0,0,0,9.7-1.28,11.25,11.25,0,0,0,5.93-4.18,12.87,12.87,0,0,0,2-7.6,13.28,13.28,0,0,0-3.15-9.17Q144.69,68.39,133.7,68.4Z"/><circle class="cls-1" cx="98" cy="98" r="90"/></g></g></svg>