<svg id="Layer_4" data-name="Layer 4" xmlns="http://www.w3.org/2000/svg" viewBox="0 0 196 196"><defs><style>.cls-1{fill:none;stroke:#000;stroke-miterlimit:10;stroke-width:16px;}</style></defs><path d="M94.12,116.82a24.68,24.68,0,0,1-3.94,13.72,26.08,26.08,0,0,1-11.5,9.52,43.06,43.06,0,0,1-18,3.45q-12.45,0-20.55-4.71a27.44,27.44,0,0,1-9.33-9,20.52,20.52,0,0,1-3.58-11,7.45,7.45,0,0,1,7.63-7.52A6.45,6.45,0,0,1,39.44,113a13.47,13.47,0,0,1,3.19,5.11,34.3,34.3,0,0,0,3.47,6.72,14.18,14.18,0,0,0,5.25,4.44,19.4,19.4,0,0,0,8.9,1.76q7.57,0,12.31-3.53a10.63,10.63,0,0,0,4.74-8.82,9.29,9.29,0,0,0-2.56-6.8,16.46,16.46,0,0,0-6.6-4q-4-1.36-10.82-2.92a79.46,79.46,0,0,1-15.18-5,24.54,24.54,0,0,1-9.7-7.75A20.12,20.12,0,0,1,28.85,80a21,21,0,0,1,3.79-12.35,23.92,23.92,0,0,1,11-8.29,44.89,44.89,0,0,1,16.87-2.9,41.77,41.77,0,0,1,13.4,1.92,28.59,28.59,0,0,1,9.39,5.11,21.44,21.44,0,0,1,5.45,6.69A15.37,15.37,0,0,1,90.44,77a8,8,0,0,1-2.15,5.48A6.84,6.84,0,0,1,82.92,85a6.17,6.17,0,0,1-4.44-1.46,19.79,19.79,0,0,1-3.31-4.8,21.68,21.68,0,0,0-5.51-7.43Q66.45,68.6,59.33,68.6q-6.6,0-10.64,2.9t-4,7A7.07,7.07,0,0,0,46,82.84,11.59,11.59,0,0,0,49.8,86a26,26,0,0,0,4.88,2.07q2.48.75,8.15,2.18a127.75,127.75,0,0,1,12.89,3.68,39.29,39.29,0,0,1,9.82,4.87,20.18,20.18,0,0,1,6.31,7.27A23.23,23.23,0,0,1,94.12,116.82Z" transform="translate(-2 -2)"/><path d="M141.24,109.3H125.63v23.82c0,3.4-.8,6-2.41,7.75a8.5,8.5,0,0,1-12.29,0c-1.56-1.74-2.35-4.3-2.35-7.67V68.37q0-5.62,2.58-8c1.73-1.61,4.46-2.41,8.21-2.41h21.87q9.7,0,14.92,1.49a22.25,22.25,0,0,1,8.93,4.76,21.46,21.46,0,0,1,5.71,8.15,28.73,28.73,0,0,1,1.95,10.85q0,12.85-7.92,19.49T141.24,109.3Zm-4.13-38.57H125.63V96.44h11.48a34.34,34.34,0,0,0,10.07-1.26,11.71,11.71,0,0,0,6.17-4.13,12.32,12.32,0,0,0,2.13-7.52,12.7,12.7,0,0,0-3.28-9.07Q148.54,70.72,137.11,70.73Z" transform="translate(-2 -2)"/><circle class="cls-1" cx="98" cy="98" r="90"/></svg>