<?xml version="1.0" encoding="UTF-8"?>
<svg width="46px" height="45px" viewBox="0 0 46 45" version="1.1" xmlns="http://www.w3.org/2000/svg" xmlns:xlink="http://www.w3.org/1999/xlink">
    <!-- Generator: Sketch 59.1 (86144) - https://sketch.com -->
    <title>tips_and_tricks</title>
    <desc>Created with Sketch.</desc>
    <g id="Skillstar" stroke="none" stroke-width="1" fill="none" fill-rule="evenodd">
        <g id="Scorecard" transform="translate(-36.000000, -707.000000)" fill="#000000" fill-rule="nonzero">
            <g id="tips-and-tricks" transform="translate(24.000000, 707.000000)">
                <g id="tips_and_tricks" transform="translate(12.000000, 0.000000)">
                    <path d="M44.6217391,14.3021739 L40.8586957,14.3021739 L40.8586957,12.0456522 C40.8604352,11.8456122 40.7821862,11.6531671 40.6413449,11.5111011 C40.5005036,11.3690351 40.3087432,11.2891304 40.1086957,11.2891304 L32.6086957,11.2891304 L32.6086957,12.7956522 L39.3586957,12.7956522 L39.3586957,38.3869565 L27.3130435,38.3869565 C25.895489,38.3820732 24.5369698,38.9542052 23.55,39.9717391 L23.55,21.8282609 L22.0434783,21.8282609 L22.0434783,39.9717391 C21.0517959,38.9492902 19.685205,38.3767357 18.2608696,38.3869565 L6.24130435,38.3869565 L6.24130435,12.7956522 L13.0434783,12.7956522 L13.0434783,11.2891304 L5.48478261,11.2891304 C5.06951632,11.2927104 4.73476718,11.6303705 4.73478261,12.0456522 L4.73478261,14.3021739 L0.97173913,14.3021739 C0.557525568,14.3021739 0.22173913,14.6379604 0.22173913,15.0521739 L0.22173913,43.6565217 C0.22173913,44.0707353 0.557525568,44.4065217 0.97173913,44.4065217 L44.6217391,44.4065217 C45.0370208,44.4065217 45.3746809,44.071788 45.3782609,43.6565217 L45.3782609,15.0521739 C45.3746809,14.6369076 45.0370208,14.3021585 44.6217391,14.3021739 Z M4.73478261,42.9 L1.72173913,42.9 L1.72173913,15.8086957 L4.73478261,15.8086957 L4.73478261,42.9 Z M6.24130435,42.9 L6.24130435,39.8934783 L18.2608696,39.8934783 C20.0485513,39.8935848 21.5903075,41.1493262 21.9521739,42.9 L6.24130435,42.9 Z M39.3586957,42.9 L23.6282609,42.9 C23.9873441,41.1503371 25.5269134,39.8941575 27.3130435,39.8934783 L39.3586957,39.8934783 L39.3586957,42.9 Z M43.8717391,42.9 L40.8586957,42.9 L40.8586957,15.8086957 L43.8717391,15.8086957 L43.8717391,42.9 Z" id="Shape"></path>
                    <rect id="Rectangle" x="9.24782609" y="24.8347826" width="9.7826087" height="1.50652174"></rect>
                    <rect id="Rectangle" x="28.8195652" y="15.8086957" width="7.52608696" height="1.50652174"></rect>
                    <rect id="Rectangle" x="28.0695652" y="18.8152174" width="8.27608696" height="1.50652174"></rect>
                    <rect id="Rectangle" x="26.5630435" y="21.8282609" width="9.7826087" height="1.50652174"></rect>
                    <rect id="Rectangle" x="26.5630435" y="24.8347826" width="9.7826087" height="1.50652174"></rect>
                    <rect id="Rectangle" x="9.24782609" y="27.8478261" width="9.7826087" height="1.50652174"></rect>
                    <rect id="Rectangle" x="26.5630435" y="27.8478261" width="9.7826087" height="1.50652174"></rect>
                    <rect id="Rectangle" x="9.24782609" y="30.8608696" width="9.7826087" height="1.50652174"></rect>
                    <rect id="Rectangle" x="26.5630435" y="30.8608696" width="9.7826087" height="1.50652174"></rect>
                    <rect id="Rectangle" x="9.24782609" y="33.8673913" width="9.7826087" height="1.50652174"></rect>
                    <rect id="Rectangle" x="26.5630435" y="33.8673913" width="9.7826087" height="1.50652174"></rect>
                    <path d="M16.7804348,17.3086957 L16.7804348,15.8086673 L10.0043478,15.8086673 C9.80430788,15.8069561 9.61186272,15.8852051 9.46979675,16.0260464 C9.32773077,16.1668877 9.24782609,16.3586481 9.24782609,16.5586957 L9.24782609,22.5782609 C9.24782609,22.9960763 9.58653241,23.3347826 10.0043478,23.3347826 L18.2608696,23.3347826 C18.678685,23.3347826 19.0173913,22.9960763 19.0173913,22.5782609 L19.0173913,18.8152174 L17.5304348,18.8152174 L17.5304348,21.8282609 L10.7543478,21.8282609 L10.7543478,17.3086957 L16.7804348,17.3086957 Z" id="Path"></path>
                    <path d="M26.9608696,13.376087 C28.7474188,11.6625184 29.302756,9.02992228 28.3605741,6.74073712 C27.4183922,4.45155195 25.1708164,2.97257767 22.6956522,3.01304348 C19.5099778,3.10193982 16.9325946,5.63380634 16.7869565,8.8173913 C16.7246539,10.5036264 17.3729616,12.138592 18.573913,13.323913 C19.2575589,13.9810012 19.6793485,14.8639783 19.7608696,15.8086957 L18.2608696,15.8086957 L18.2608696,17.3086957 L19.7673913,17.3086957 L19.7673913,18.8152174 C19.7709636,19.6457622 20.4433683,20.3181668 21.273913,20.3217391 L24.2869565,20.3217391 C24.6859138,20.3217391 25.0684364,20.1628127 25.3499292,19.880096 C25.6314219,19.5973794 25.7886911,19.2141709 25.7869565,18.8152174 L25.7869565,17.3086957 L27.2934783,17.3086957 L27.2934783,15.8086957 L25.8391304,15.8086957 C25.9037899,14.8881411 26.3027397,14.0229769 26.9608696,13.376087 L26.9608696,13.376087 Z M24.3065217,18.8152174 L21.2934783,18.8152174 L21.2934783,17.3086957 L24.3065217,17.3086957 L24.3065217,18.8152174 Z M24.3065217,15.8086957 L21.2869565,15.8086957 C21.2025419,14.4555778 20.6110221,13.1840431 19.6304348,12.2478261 C18.7178265,11.365337 18.2204298,10.1384252 18.2608696,8.86956522 C18.3728398,6.47984393 20.3106426,4.5818785 22.7021739,4.51956522 C23.9220339,4.48863369 25.1010287,4.96023159 25.9630435,5.82391304 C26.8242457,6.67457757 27.3082124,7.8351578 27.3065686,9.04565217 C27.3121532,10.2774987 26.8096166,11.4571621 25.9173913,12.3065217 C24.9554491,13.2265222 24.3815084,14.4793927 24.3130435,15.8086957 L24.3065217,15.8086957 Z" id="Shape"></path>
                    <path d="M22.0434783,11.1521739 L22.0434783,14.3021739 L23.55,14.3021739 L23.55,11.1521739 C24.4484909,10.8334975 25.0509204,9.98592352 25.0565217,9.0326087 L23.55,9.0326087 C23.5137699,9.42155615 23.1873703,9.71896489 22.7967391,9.71896489 C22.4061079,9.71896489 22.0797084,9.42155615 22.0434783,9.0326087 L20.5434783,9.0326087 C20.5442217,9.98547622 21.1451058,10.8345516 22.0434783,11.1521739 L22.0434783,11.1521739 Z" id="Path"></path>
                    <rect id="Rectangle" x="22.0434783" y="0" width="1.50652174" height="1.50652174"></rect>
                    <polygon id="Rectangle" transform="translate(18.659427, 1.859697) rotate(-30.000000) translate(-18.659427, -1.859697) " points="17.9061664 1.10643653 19.4126881 1.10643653 19.4126881 2.61295827 17.9061664 2.61295827"></polygon>
                    <polygon id="Rectangle" transform="translate(15.631666, 4.895150) rotate(-60.000000) translate(-15.631666, -4.895150) " points="14.8784049 4.14188893 16.3849266 4.14188893 16.3849266 5.64841066 14.8784049 5.64841066"></polygon>
                    <rect id="Rectangle" x="13.7673913" y="8.2826087" width="1.50652174" height="1.50652174"></rect>
                    <polygon id="Rectangle" transform="translate(15.628763, 13.169619) rotate(-30.000000) translate(-15.628763, -13.169619) " points="14.8755024 12.4163586 16.3820241 12.4163586 16.3820241 13.9228803 14.8755024 13.9228803"></polygon>
                    <polygon id="Rectangle" transform="translate(29.969619, 13.171955) rotate(-60.000000) translate(-29.969619, -13.171955) " points="29.2163586 12.4186942 30.7228803 12.4186942 30.7228803 13.9252159 29.2163586 13.9252159"></polygon>
                    <rect id="Rectangle" x="30.326087" y="8.2826087" width="1.50652174" height="1.50652174"></rect>
                    <polygon id="Rectangle" transform="translate(30.119576, 4.964250) rotate(-29.886527) translate(-30.119576, -4.964250) " points="29.3637209 4.20839485 30.8754312 4.20839485 30.8754312 5.72010515 29.3637209 5.72010515"></polygon>
                    <polygon id="Rectangle" transform="translate(26.942306, 1.867836) rotate(-60.000000) translate(-26.942306, -1.867836) " points="26.1890452 1.11457556 27.695567 1.11457556 27.695567 2.62109729 26.1890452 2.62109729"></polygon>
                </g>
            </g>
        </g>
    </g>
</svg>