<?xml version="1.0" encoding="UTF-8"?>
<svg width="78px" height="48px" viewBox="0 0 78 48" version="1.1" xmlns="http://www.w3.org/2000/svg" xmlns:xlink="http://www.w3.org/1999/xlink">
    <!-- Generator: Sketch 59.1 (86144) - https://sketch.com -->
    <title>tooothbrush</title>
    <desc>Created with Sketch.</desc>
    <g id="Skillstar" stroke="none" stroke-width="1" fill="none" fill-rule="evenodd">
        <g id="Learning-Zone-2" transform="translate(-151.000000, -284.000000)" fill="#000000">
            <g id="tooothbrush" transform="translate(149.000000, 270.000000)">
                <g transform="translate(41.500000, 39.500000) rotate(-345.000000) translate(-41.500000, -39.500000) translate(8.000000, 8.000000)" id="Shape">
                    <path d="M66.3426285,8.13791315 L65.0753301,6.87158672 C64.2226486,6.01602375 62.8417674,6.01602375 61.9890858,6.87158672 L55.7718692,0.629871252 C55.3591805,0.218419219 54.6936186,0.218419219 54.2809299,0.629871252 L54.2809299,0.629871252 L40.5195606,14.43208 C40.1102149,14.8468922 40.1102149,15.515879 40.5195606,15.9306912 L40.5195606,15.9306912 L46.7293226,22.1798997 L40.8102937,28.129386 L31.8124754,29.1784138 C29.5855945,29.441668 27.5114201,30.4497841 25.9232653,32.0407611 L1.9787809,56.1309355 C0.606121004,57.5666046 0.628613833,59.8423105 2.02937999,61.2502845 C3.43014615,62.6582586 5.69420187,62.6808672 7.12252133,61.301144 L29.2107864,39.0917266 C30.2384141,38.0652456 31.5283845,37.3443315 32.9381345,37.0086571 L40.3928308,35.2402959 C42.1882602,34.8132233 43.8299473,33.8921576 45.1340176,32.5802611 L66.3426285,11.2475313 C67.170944,10.3781794 67.170944,9.00726503 66.3426285,8.13791315 Z M42.8006977,15.1963717 L44.5152778,13.4654758 L47.3256983,16.2903579 C47.7518465,16.5808104 48.3231479,16.5262287 48.6872244,16.1602788 C49.0513009,15.7943289 49.1056031,15.2200877 48.8166375,14.7917467 L46.006217,11.9668647 L48.5929966,9.33680208 L52.2383431,13.0009064 C52.6543197,13.4053252 53.3143618,13.405506 53.7305577,13.0013152 C54.1467536,12.5971244 54.1692712,11.9340721 53.7814652,11.5022952 L53.7814652,11.5022952 L50.1361188,7.83819092 L52.0817945,5.88250336 L55.3320421,9.15696874 C55.5948468,9.44957127 55.9954852,9.57483096 56.3770426,9.48368842 C56.7586,9.39254587 57.0603404,9.09950908 57.1640837,8.71934931 C57.267827,8.33918954 57.1570593,7.93242033 56.8751642,7.65835758 L56.8751642,7.65835758 L53.6249166,4.3838922 L55.0338542,2.96770466 L60.4832372,8.4526215 L48.2500806,20.6737955 L42.8006977,15.1963717 Z M43.5983502,31.0516778 C42.5725699,32.0821532 41.2821377,32.8059195 39.871002,33.1422403 L32.4163058,34.9031084 C30.6401361,35.329398 29.0151754,36.2393919 27.7198471,37.533171 L5.60176329,59.7725606 C5.23739282,60.2002285 4.66527692,60.3865145 4.12063595,60.2548289 C3.57599498,60.1231432 3.15075111,59.6957111 3.01973958,59.1482676 C2.88872805,58.6008241 3.07406042,58.0257643 3.49953894,57.6595189 L3.49953894,57.6595189 L27.4440233,33.5918237 C28.6877749,32.3434663 30.3130156,31.5517359 32.0584803,31.3439069 L41.4290335,30.2499208 C41.6718953,30.226001 41.8987401,30.1172976 42.0701374,29.9427055 L63.5545721,8.4001701 L64.8218704,9.66649653 L65.56734,8.91719095 L43.5983502,31.0516778 Z" fill-rule="nonzero"></path>
                </g>
            </g>
        </g>
    </g>
</svg>