<?xml version="1.0" encoding="UTF-8"?>
<svg width="170px" height="170px" viewBox="0 0 170 170" version="1.1" xmlns="http://www.w3.org/2000/svg" xmlns:xlink="http://www.w3.org/1999/xlink">
    <!-- Generator: Sketch 59.1 (86144) - https://sketch.com -->
    <title>tooth_award</title>
    <desc>Created with Sketch.</desc>
    <g id="Skillstar" stroke="none" stroke-width="1" fill="none" fill-rule="evenodd">
        <g id="learning-zone-5" transform="translate(-107.000000, -361.000000)" fill="#000000" fill-rule="nonzero">
            <g id="tooth_award" transform="translate(109.000000, 363.000000)">
                <path d="M83,-1.24 C129.524467,-1.24 167.24,36.4755327 167.24,83 C167.24,129.524467 129.524467,167.24 83,167.24 C36.4755327,167.24 -1.24,129.524467 -1.24,83 C-1.24,36.4755327 36.4755327,-1.24 83,-1.24 Z M83,1.24 C37.8451989,1.24 1.24,37.8451989 1.24,83 C1.24,128.154801 37.8451989,164.76 83,164.76 C128.154801,164.76 164.76,128.154801 164.76,83 C164.76,37.8451989 128.154801,1.24 83,1.24 Z" id="Oval"></path>
                <path d="M105.778644,27.214216 C105.629274,26.3625799 106.37543,25.6233709 107.225632,25.7807009 L107.483023,25.8319499 L108.179846,25.9877754 C108.595702,26.0861157 109.045131,26.2014312 109.521267,26.3345022 C111.223319,26.810194 112.926623,27.414912 114.525924,28.1639346 C120.653365,31.0336834 123.743147,35.2608447 121.573738,40.8836264 C121.445912,41.2149322 121.182178,41.4755363 120.84937,41.5993985 C115.163906,43.7153742 110.934637,40.6253502 108.108797,34.5209093 C107.367777,32.9201437 106.774713,31.215476 106.312701,29.5121009 L106.132006,28.8182601 C106.076126,28.5942314 106.024561,28.3777402 105.977202,28.1696446 L105.878326,27.7190375 L105.778644,27.214216 Z M110.359355,33.4790907 C112.607717,38.3360498 115.547296,40.6236375 119.446294,39.4560184 C120.633947,35.626594 118.348234,32.6926051 113.474076,30.4098232 C112.219905,29.8224402 110.881431,29.3269438 109.530125,28.9194221 L108.853733,28.7229743 L108.65393,28.6677835 L108.897039,29.538721 C109.293524,30.8888822 109.779361,32.2261755 110.359355,33.4790907 Z" id="Path"></path>
                <path d="M132.482684,33.2910085 C132.977169,32.5814845 134.027799,32.5833252 134.519794,33.2945774 L134.732335,33.613672 L134.986784,34.0120287 L135.264286,34.4629226 C135.810712,35.3667961 136.356508,36.3606679 136.866657,37.4172697 C137.93582,39.6316822 138.706699,41.8227659 139.048602,43.9056427 C139.817444,48.5894264 138.320215,52.2732151 133.990693,54.13878 C133.673901,54.2752839 133.314565,54.273658 132.999021,54.1342928 C128.709161,52.239606 127.203253,48.5831296 127.936209,43.9531748 C128.269842,41.8456738 129.04801,39.6292363 130.134448,37.3907494 C130.644834,36.3391549 131.190884,35.3507032 131.737577,34.4522767 L132.015241,34.004111 L132.269854,33.6082414 L132.482684,33.2910085 Z M133.207671,36.8557903 C132.920017,37.3729591 132.637098,37.9141122 132.365552,38.473604 C131.377103,40.5101957 130.676022,42.5070678 130.385705,44.3409484 C129.845437,47.753729 130.746177,50.1979304 133.505916,51.6287372 C136.277679,50.220095 137.168754,47.763957 136.601354,44.3073579 C136.303086,42.490309 135.607458,40.5131106 134.633343,38.4955593 C134.360489,37.930434 134.076159,37.3836918 133.787076,36.8611226 L133.496658,36.3468255 L133.207671,36.8557903 Z" id="Path"></path>
                <path d="M147.803235,54.9465428 C148.534641,54.492417 149.494896,54.9035412 149.671078,55.7462422 L149.719303,55.994155 L149.813594,56.539131 L149.911256,57.1852423 C149.927186,57.2986025 149.942899,57.4147197 149.958327,57.533473 C150.264363,59.8891441 150.350714,62.3345964 150.080549,64.6450202 C149.404907,70.4230513 146.611955,74.1334505 141.158145,74.2397645 C140.814447,74.2464644 140.483391,74.1101847 140.244015,73.8634616 C139.107838,72.6924133 138.363862,71.427425 138.006485,70.0857542 C137.002482,66.3165022 139.018443,62.5098964 142.872233,58.8293249 C143.948844,57.8011044 145.097898,56.8572841 146.247009,56.0158127 C146.548964,55.794697 146.835171,55.592335 147.101783,55.4097732 L147.361722,55.2338503 L147.803235,54.9465428 Z M147.032228,58.5278363 C146.194345,59.1743406 145.366363,59.8766341 144.585088,60.6227924 C141.322639,63.7386031 139.698944,66.8045167 140.402927,69.4474217 C140.609945,70.2246164 141.019165,70.9855565 141.655874,71.7324946 C145.266774,71.4308504 147.094842,68.8252776 147.617332,64.3569889 C147.826379,62.5692399 147.796983,60.6535329 147.605556,58.7723013 L147.535851,58.1467237 L147.032228,58.5278363 Z" id="Path"></path>
                <path d="M140.43568,91.7421495 C140.135259,91.550245 139.931961,91.2383282 139.87767,90.8860033 C139.030132,85.3858347 142.604239,82.0993304 148.7076,80.6183544 C150.344755,80.2211 152.082984,79.9756495 153.842433,79.8512318 C154.891973,79.7770147 155.823734,79.7533776 156.579582,79.7607453 L157.00052,79.7686051 L157.171099,79.7809446 C157.973662,79.8902004 158.470062,80.745527 158.135389,81.5077979 L158.017235,81.7661374 L157.746251,82.3245726 C157.591234,82.6349164 157.417786,82.9680739 157.226384,83.3195866 C156.497588,84.6580354 155.655695,85.9967571 154.707378,87.2520891 C150.532633,92.7783948 145.631534,95.0611828 140.43568,91.7421495 Z M142.484935,90.0611297 C146.036885,91.860308 149.453159,90.0930073 152.728549,85.7572194 C153.564532,84.6505897 154.317161,83.4619984 154.973572,82.2701488 L154.345492,82.3033304 C154.237623,82.3099833 154.128218,82.3172156 154.017367,82.3250544 C152.386795,82.4403586 150.782008,82.666966 149.2924,83.0284184 C144.634228,84.1587206 142.096616,86.2709305 142.248249,89.7076499 L142.262761,89.9440282 L142.484935,90.0611297 Z" id="Path"></path>
                <path d="M134.025612,108.918661 C133.806675,108.640497 133.71706,108.282023 133.779346,107.933556 C134.680003,102.894732 138.479749,100.713217 143.922514,100.760748 C146.001615,100.778905 148.203154,101.119133 150.402871,101.673743 C151.190639,101.872362 151.923268,102.085239 152.583001,102.298623 L152.898883,102.402633 L153.437136,102.591838 C154.252042,102.898824 154.504983,103.928124 153.92518,104.577847 L153.768172,104.74919 L153.416541,105.118191 L152.991419,105.546923 C152.916114,105.621415 152.838618,105.697352 152.75898,105.774625 C151.850813,106.655815 150.845716,107.536557 149.768184,108.360945 C147.114078,110.391526 144.46064,111.757086 141.89595,112.136227 C138.836283,112.58854 136.118606,111.577849 134.025612,108.918661 Z M136.529862,108.021821 C137.941724,109.474764 139.593259,109.969683 141.533271,109.682889 C143.603559,109.376837 145.911229,108.189222 148.261254,106.391285 C149.124841,105.73058 149.942218,105.026996 150.694019,104.318052 C150.405016,104.236546 150.10539,104.156351 149.796567,104.078488 C147.773045,103.568301 145.75785,103.25687 143.900857,103.240653 C139.869112,103.205445 137.288321,104.507429 136.40502,107.572119 L136.338817,107.817738 L136.529862,108.021821 Z" id="Path"></path>
                <path d="M121.872478,125.113637 C121.72694,124.795643 121.722448,124.430976 121.860109,124.109493 C123.72121,119.763204 127.39652,118.217996 132.077839,118.921745 C134.182771,119.238183 136.397458,119.990812 138.633702,121.045535 C139.675976,121.537122 140.655379,122.063106 141.545347,122.58974 L141.989339,122.85726 C142.059089,122.900085 142.12668,122.941985 142.192057,122.982895 L142.381496,123.102588 L142.695912,123.307794 C143.409976,123.791982 143.423629,124.83928 142.72243,125.341919 L142.402911,125.56242 L142.004016,125.826345 L141.552432,126.114178 C140.64705,126.680977 139.651053,127.247136 138.591539,127.776363 C136.344486,128.898765 134.119628,129.704212 132.003098,130.052865 C127.436146,130.805173 123.805175,129.336503 121.872478,125.113637 Z M124.509623,124.821458 C125.974889,127.337488 128.3487,128.141426 131.600003,127.605843 C133.438076,127.30306 135.440477,126.578147 137.483338,125.557739 C138.247371,125.176105 138.977613,124.772779 139.659849,124.364904 C139.005463,123.996877 138.306527,123.633225 137.575777,123.288567 C135.540251,122.328513 133.543505,121.649948 131.70916,121.374188 C128.353374,120.869708 125.934209,121.728689 124.502364,124.338467 L124.374917,124.580553 L124.509623,124.821458 Z" id="Path"></path>
                <path d="M58.7743685,25.7807009 C59.6339512,25.6216349 60.3838452,26.3781022 60.2172836,27.236264 L60.1474182,27.5814292 C59.9774968,28.3854456 59.7137475,29.4220298 59.3453577,30.5960832 C58.7102334,32.6202162 57.9155754,34.5450838 56.9395778,36.2438325 C54.0934781,41.1975416 50.1315955,43.4846862 45.1441975,41.5969842 C44.8143209,41.4721278 44.553226,41.2126976 44.4262622,40.8836264 C42.2568535,35.2608447 45.3466354,31.0336834 51.474076,28.1639346 C53.0733768,27.414912 54.7766813,26.810194 56.4787333,26.3345022 C56.9548685,26.2014312 57.4042979,26.0861157 57.8201536,25.9877754 L58.270345,25.8849338 L58.7743685,25.7807009 Z M57.3259943,28.67327 L57.2364975,28.6978889 L56.4698752,28.9194221 C55.1185689,29.3269438 53.7800947,29.8224402 52.525924,30.4098232 C47.650275,32.6933032 45.3646557,35.6283886 46.5547966,39.4595318 C49.9366032,40.4875165 52.5954982,38.8266012 54.7892221,35.008369 C55.6653492,33.4834473 56.3938407,31.7188521 56.9791086,29.853611 C57.105477,29.4508763 57.221017,29.0562995 57.3259943,28.67327 Z" id="Path"></path>
                <path d="M30.4802064,33.2945774 C30.9722014,32.5833252 32.0228314,32.5814845 32.5173156,33.2910085 L32.6245421,33.4487287 L32.9847594,34.004111 L33.2624226,34.4522767 C33.8091164,35.3507032 34.3551663,36.3391549 34.8655521,37.3907494 C35.9519898,39.6292363 36.7301576,41.8456738 37.0637908,43.9531748 C37.7967472,48.5831296 36.2908392,52.239606 32.0009789,54.1342928 C31.6854349,54.273658 31.3260989,54.2752839 31.0093066,54.13878 C26.6797845,52.2732151 25.1825556,48.5894264 25.9513976,43.9056427 C26.2933013,41.8227659 27.0641795,39.6316822 28.133343,37.4172697 C28.6434919,36.3606679 29.189288,35.3667961 29.7357145,34.4629226 L30.0132156,34.0120287 L30.2676653,33.613672 L30.4802064,33.2945774 Z M31.2129237,36.8611226 C30.9238409,37.3836918 30.639511,37.930434 30.366657,38.4955593 C29.3925421,40.5131106 28.6969142,42.490309 28.398646,44.3073579 C27.8312461,47.763957 28.7223215,50.220095 31.4940835,51.6287372 C34.2538227,50.1979304 35.1545632,47.753729 34.6142946,44.3409484 C34.3239776,42.5070678 33.6228969,40.5101957 32.6344479,38.473604 C32.3629015,37.9141122 32.0799832,37.3729591 31.7923289,36.8557903 L31.5033418,36.3468255 L31.2129237,36.8611226 Z" id="Path"></path>
                <path d="M15.328922,55.7462422 C15.5051038,54.9035412 16.4653589,54.492417 17.1967649,54.9465428 L17.3297847,55.030941 L17.8982168,55.4097732 C18.1648293,55.592335 18.4510364,55.794697 18.7529914,56.0158127 C19.9021023,56.8572841 21.051156,57.8011044 22.1277675,58.8293249 C25.9815571,62.5098964 27.9975184,66.3165022 26.9935149,70.0857542 C26.6361383,71.427425 25.8921618,72.6924133 24.7559852,73.8634616 C24.5166091,74.1101847 24.1855529,74.2464644 23.8418549,74.2397645 C18.3880451,74.1334505 15.5950934,70.4230513 14.9194509,64.6450202 C14.6492861,62.3345964 14.7356366,59.8891441 15.0416733,57.533473 C15.0879568,57.177213 15.136803,56.8446783 15.1864062,56.539131 L15.2595451,56.1103502 L15.328922,55.7462422 Z M17.3944437,58.7723013 C17.2030169,60.6535329 17.1736211,62.5692399 17.3826679,64.3569889 C17.9051583,68.8252776 19.733226,71.4308504 23.3441255,71.7324946 C23.980835,70.9855565 24.3900545,70.2246164 24.5970734,69.4474217 C25.3010555,66.8045167 23.6773615,63.7386031 20.4149119,60.6227924 C19.6336372,59.8766341 18.805655,59.1743406 17.9677722,58.5278363 L17.4641489,58.1467237 L17.3944437,58.7723013 Z" id="Path"></path>
                <path d="M26.1223479,90.8920284 C26.0680675,91.2445091 25.8646505,91.5565536 25.5640515,91.7484629 C20.379784,95.0582191 15.4818535,92.7747631 11.3021967,87.2530469 C10.3520866,85.997863 9.50815065,84.6592812 8.77723039,83.3209698 C8.58527079,82.9694928 8.41128907,82.63637 8.25577058,82.3260602 L8.04084591,81.8875874 L7.86532425,81.5094253 C7.52927746,80.7469862 8.02557317,79.890388 8.8287699,79.7809678 L8.95148549,79.7702638 L9.42040904,79.7607458 C10.1762779,79.7533732 11.1080595,79.7770258 12.1576219,79.8512915 C13.91711,79.9757907 15.6553791,80.2214023 17.292575,80.6189183 C23.3958462,82.1008107 26.9697563,85.3892156 26.1223479,90.8920284 Z M23.7517548,89.7132617 C23.9034819,86.2736526 21.3656932,84.1599388 16.707425,83.0288975 C15.4040537,82.7124351 14.0124981,82.4992754 12.5926445,82.3736383 L11.8179788,82.313831 L11.02961,82.2703084 C11.6878493,83.4617805 12.4421682,84.6499662 13.2795817,85.7562675 C16.5587693,90.08838 19.9740887,91.8567177 23.5157191,90.0663781 L23.7372354,89.9498391 L23.7517548,89.7132617 Z" id="Path"></path>
                <path d="M32.2206539,107.933556 C32.28294,108.282023 32.1933252,108.640497 31.9743878,108.918661 C29.8813937,111.577849 27.1637175,112.58854 24.1040503,112.136227 C21.5393597,111.757086 18.8859224,110.391526 16.2318158,108.360945 C15.1542842,107.536557 14.1491867,106.655815 13.2410204,105.774625 C13.0021061,105.542807 12.7824643,105.32301 12.5834593,105.118191 L12.2318277,104.74919 L12.0748203,104.577847 C11.4950171,103.928124 11.7479581,102.898824 12.5628639,102.591838 L12.7334812,102.529493 L13.416999,102.298623 C14.0767323,102.085239 14.8093609,101.872362 15.5971292,101.673743 C17.7968461,101.119133 19.998385,100.778905 22.077486,100.760748 C27.5202509,100.713217 31.3199975,102.894732 32.2206539,107.933556 Z M29.5949801,107.572119 C28.7116791,104.507429 26.1308878,103.205445 22.0991427,103.240653 C20.2421504,103.25687 18.2269554,103.568301 16.2034328,104.078488 C15.8946095,104.156351 15.5949842,104.236546 15.3059814,104.318052 C16.057782,105.026996 16.8751594,105.73058 17.7387463,106.391285 C20.0887708,108.189222 22.396441,109.376837 24.4667293,109.682889 C26.4067413,109.969683 28.0582761,109.474764 29.4701377,108.021821 L29.6611833,107.817738 L29.5949801,107.572119 Z" id="Path"></path>
                <path d="M44.1407731,124.111558 C44.2769371,124.431144 44.2727999,124.793192 44.1293684,125.109583 C42.2076062,129.34874 38.5652533,130.813723 33.9764621,130.046359 C31.870311,129.694156 29.6561247,128.89183 27.4192077,127.776825 C26.3576746,127.247698 25.359483,126.681644 24.4518907,126.114957 L23.9991979,125.827191 L23.5992921,125.563333 L23.2790136,125.342952 C22.5761867,124.840669 22.5894745,123.791633 23.3047984,123.307313 L23.4613226,123.203938 L24.0122245,122.856868 L24.4567535,122.58938 C25.3477945,122.062798 26.3282676,121.536863 27.3715339,121.045321 C29.6030764,119.993916 31.8128026,119.242656 33.9129182,118.924546 C38.6049534,118.213831 42.285633,119.75742 44.1407731,124.111558 Z M41.4998612,124.339214 C40.0722324,121.724779 37.6499904,120.866771 34.2843338,121.376576 C32.4532779,121.653931 30.4603733,122.331476 28.4285542,123.28878 C27.6976232,123.633163 26.9984111,123.99651 26.3436529,124.364237 C27.0277296,124.772183 27.759792,125.175578 28.5255548,125.557277 C30.560389,126.571552 32.5545056,127.294134 34.3855022,127.600324 C37.6554611,128.147146 40.0352146,127.346375 41.4929443,124.823331 L41.6269043,124.581739 L41.4998612,124.339214 Z" id="Path"></path>
                <path d="M120.144914,40.9477631 C132.482962,51.3568903 139.634557,66.5702005 139.757598,82.6163012 L139.758961,83.203718 C139.903732,106.396661 124.638428,126.872384 102.317294,133.557609 L100.480392,134.081137 L97.0783966,135.020865 L95.5753992,135.444352 L94.5119791,135.75322 C93.9988461,135.90462 93.5106139,136.05242 93.0339402,136.200908 L92.1588123,136.47848 C82.4432998,139.616352 76.4432834,143.688106 73.8403802,150.560817 C73.597826,151.201257 73.9203765,151.917066 74.5608169,152.15962 C75.2012572,152.402174 75.9170657,152.079623 76.1596198,151.439183 C78.386282,145.5599 83.6543643,141.903961 92.4210555,139.001917 L92.9210228,138.838445 C93.9618474,138.502285 95.0242151,138.181736 96.2642665,137.826775 L102.320611,136.140378 C125.839105,129.433845 142.065063,108.162929 142.238595,83.9348096 L142.239455,83.1997309 C142.290427,66.2151311 134.792407,50.0605864 121.744096,39.0522369 C121.220661,38.6106352 120.438344,38.6769743 119.996742,39.2004094 C119.55514,39.7238445 119.621479,40.5061614 120.144914,40.9477631 Z" id="Path"></path>
                <path d="M44.26275,39.0521075 C31.3619424,49.9324402 23.8848422,65.8400487 23.7624204,82.6186885 L23.7611566,83.2112307 C23.6019554,107.488918 39.5995133,128.939688 62.983693,135.933523 L63.9187442,136.204073 L68.1671999,137.371439 C70.0271239,137.884677 71.461201,138.302278 72.8535621,138.745788 C82.0750648,141.68312 87.5540007,145.371588 89.8396467,151.437242 C90.0811287,152.078087 90.7963963,152.401835 91.4372417,152.160353 C92.0780871,151.918871 92.4018352,151.203604 92.1603533,150.562758 C89.5389837,143.606161 83.4818669,139.528456 73.6062559,136.38277 L72.821388,136.136733 L72.0156226,135.891985 C71.1946989,135.646387 70.3212354,135.395997 69.3316519,135.120641 L64.3722108,133.755401 C41.8992375,127.3565 26.4000205,107.045109 26.2412319,83.9172955 L26.2411243,83.215602 C26.1918753,66.9420613 33.3689963,51.4839731 45.8616244,40.9478925 C46.385131,40.5063755 46.4515967,39.7240694 46.0100797,39.2005628 C45.5685627,38.6770562 44.7862566,38.6105905 44.26275,39.0521075 Z" id="Path"></path>
                <path d="M90.6556238,57.5795877 L92.3369278,56.485992 C95.9188545,54.1466457 98.2211132,53.24 101.896067,53.24 C104.382095,53.3757717 106.843715,54.2325194 108.929529,55.7093418 C111.200472,57.5644828 112.615427,60.3719947 112.758015,63.3806513 C112.293922,69.6809654 110.289711,75.7716716 106.920705,81.1183119 C105.966768,82.5204853 105.076331,84.0158468 104.277736,85.5603792 C102.001271,90.1645722 101.355601,93.6005862 101.007641,100.446851 L100.863096,103.485673 L100.837543,103.93779 C100.557641,108.705217 99.8996445,111.928697 98.2344368,115.344082 C97.5465092,116.738471 96.5408288,118.166692 95.5025765,119.239906 C94.5587015,120.215565 93.702332,120.76 93.3405899,120.76 C93.0285355,120.76 92.2732509,118.761084 92.0088087,116.82713 L91.7095782,114.336848 L91.5760243,113.257436 C89.4075426,95.9356798 86.7803043,84.8898943 83,84.8898943 C78.9823614,84.8898943 76.271017,97.3600516 74.0184007,116.613519 C73.7795347,118.64229 72.9962903,120.76 72.6594101,120.76 C71.6527222,120.76 69.1012847,118.135574 67.7443487,115.345222 C66.0765048,111.887869 65.4375723,108.729743 65.1606228,103.880711 L65.0847181,102.339851 L65.0009304,100.44951 C64.6678311,93.6181353 64.0219497,90.1834999 61.7310307,85.5776645 C60.9143327,84.0184552 60.026484,82.5274391 59.0595279,81.0879349 C55.7102146,75.7715579 53.7060781,69.6809651 53.2419853,63.3806515 C53.3845769,60.371992 54.8000317,57.5640996 57.1374827,55.6583943 C59.1332225,54.2429551 61.5651003,53.3869406 64.0899509,53.2378436 C67.6062222,53.239923 69.8922823,54.1006621 73.2392019,56.2858887 L74.9602103,57.4316937 C77.9472612,59.3977293 80.0480656,60.2443505 82.9564607,60.2443505 C83.0984312,60.2443505 83.2348291,60.2204916 83.3618637,60.1765647 L83.4856366,60.1260889 C86.0285481,60.0330217 88.0018214,59.251454 90.6556238,57.5795877 Z M76.6660237,55.5828739 L76.074958,55.1951449 C75.6622398,54.920333 75.0002843,54.4767188 74.9904754,54.4701847 C71.0648749,51.8551639 68.3157459,50.76 64.0168539,50.76 C60.9545969,50.9386717 58.0754429,51.9521261 55.6354715,53.6866774 C52.6650909,56.104922 50.914285,59.603796 50.7610375,63.3476698 L50.7631844,63.487194 C51.2465889,70.2193471 53.3821426,76.7288487 56.9810983,82.4404203 C57.9176377,83.8355932 58.7594058,85.2492234 59.5224367,86.7054182 C61.6143885,90.9118242 62.2087107,94.0754483 62.5254113,100.601666 L62.6544555,103.459808 C62.9300067,108.922537 63.6095299,112.481794 65.5123757,116.426278 C67.2491291,119.997686 70.4012706,123.24 72.6594101,123.24 C74.961178,123.24 76.0119337,120.562777 76.447512,117.178518 L76.6882774,115.177832 L76.9041261,113.461314 C77.6748851,107.47368 78.6031526,101.728019 79.5938001,97.1717818 L79.8366632,96.0900163 L80.0040266,95.382972 C81.2073836,90.4053651 82.4821572,87.3698943 83,87.3698943 C83.5658187,87.3698943 85.0326845,90.9827347 86.3240456,96.7900872 L86.4062242,97.1637359 C87.5391819,102.372189 88.5904193,109.138191 89.4163176,116.038339 L89.5183709,116.901453 C89.9271997,120.373785 90.9942105,123.24 93.3405899,123.24 C95.5746154,123.24 98.6963529,120.013141 100.461052,116.436123 C102.228988,112.810069 102.961082,109.410068 103.278464,104.639739 L103.364194,103.143024 L103.482787,100.605219 L103.540628,99.5448863 C103.884613,93.7048507 104.524534,90.6566002 106.490788,86.6794418 C107.233798,85.2428538 108.073518,83.8326634 108.995343,82.4764091 C112.617857,76.7288487 114.753411,70.2193471 115.236816,63.487194 L115.238962,63.3476698 C115.085715,59.603796 113.334909,56.104922 110.429618,53.7362608 C107.894905,51.938103 104.982725,50.9245412 101.962794,50.7617967 C97.7974411,50.76 95.1185818,51.7583922 91.3850156,54.1482019 L89.6943037,55.2512033 C87.0219189,56.9766388 85.3125252,57.6555873 82.9564607,57.6555873 C82.8274026,57.6555873 82.7029496,57.6753036 82.5859492,57.7118883 L82.4715386,57.7539904 C80.4865116,57.667127 78.9136656,57.0273451 76.6660237,55.5828739 Z" id="Path"></path>
            </g>
        </g>
    </g>
</svg>