<?xml version="1.0" encoding="UTF-8"?>
<svg width="44px" height="54px" viewBox="0 0 44 54" version="1.1" xmlns="http://www.w3.org/2000/svg" xmlns:xlink="http://www.w3.org/1999/xlink">
    <!-- Generator: Sketch 59.1 (86144) - https://sketch.com -->
    <title>tooth</title>
    <desc>Created with Sketch.</desc>
    <g id="Skillstar" stroke="none" stroke-width="1" fill="none" fill-rule="evenodd">
        <g id="learning-zone-3" transform="translate(-27.000000, -234.000000)" fill="#000000" fill-rule="nonzero">
            <g id="Group" transform="translate(27.000000, 233.000000)">
                <g id="tooth">
                    <path d="M4.36395032,28.9519143 C5.18174214,30.6312751 6.30082569,32.9343985 6.36846261,33.9959945 C6.74354007,39.7897893 7.70890335,47.4608695 10.1438324,51.1494656 L10.4574217,51.6412784 C11.3489993,53.0567396 12.5726126,55 14.4787439,55 L14.4787439,55 C15.3031697,54.9791658 16.0829725,54.6302678 16.6369765,54.0343675 C17.9897149,52.7208675 18.2479649,50.6936391 18.4816197,49.06226 C18.5185126,48.744381 18.5615543,48.4624883 18.6045959,48.1566047 C18.862846,46.5672097 18.961227,45.265705 19.0534591,44.0061844 C19.1246329,41.8766848 19.4907305,39.7663557 20.1417986,37.7325723 C20.5476201,36.5330288 21.1625012,35.8552868 21.9864418,35.7593233 C22.8042337,35.8552868 23.4191147,36.5210334 23.831085,37.7325723 C24.4854214,39.7598401 24.8556562,41.8641192 24.9317222,43.9881913 C25.0301031,45.2477119 25.1284841,46.5492165 25.3867342,48.1386116 C25.4297758,48.4205043 25.4728175,48.7383833 25.5097104,49.0442669 C25.7187699,50.6756459 25.9831688,52.7028743 27.3543536,54.0163744 C27.9136458,54.6086403 28.6936254,54.9566259 29.518735,54.9820068 C31.4248663,54.9820068 32.6484796,53.0387465 33.5400572,51.6232852 L33.8536465,51.1314724 C36.3131708,47.4488741 37.24779,39.7717961 37.6290163,33.9780013 C37.6966532,32.9164054 38.8157368,30.613282 39.6335286,28.9339212 C40.106987,27.962291 40.5189573,27.134606 40.7649098,26.4688594 C43.1260531,20.2672199 47.5286015,8.70961889 38.8649272,2.77787661 C36.9718706,1.5640453 34.7406079,0.950286637 32.4763129,1.02054548 C31.7916146,1.01575352 31.1074157,1.05784094 30.4287589,1.14649754 C28.9575088,1.36165433 27.4999506,1.65801744 26.0631033,2.03415968 C24.7279694,2.40422195 23.3615956,2.65713244 21.980293,2.78987204 C20.5989904,2.65713244 19.2326167,2.40422195 17.8974827,2.03415968 C16.4606355,1.65801744 15.0030772,1.36165433 13.5318271,1.14649754 C12.8495418,1.05126048 12.1612111,1.003159 11.4719755,1.00255233 C9.21975154,0.954623449 7.00679577,1.58272546 5.13255166,2.80186748 C-3.52497383,8.72761204 0.871425832,20.285213 3.23256915,26.4868526 C3.47852158,27.134606 3.88434308,27.9802842 4.36395032,28.9519143 Z M6.54677812,4.74512784 C8.00589553,3.81472065 9.72354528,3.34559681 11.4658267,3.40163919 C12.0398091,3.40321555 12.6130008,3.44329489 13.1813449,3.52159354 C14.5673977,3.72704891 15.9406938,4.00737335 17.2948993,4.36127394 C18.4744982,4.67029737 19.67141,4.91260876 20.8796559,5.08699772 C22.9539638,5.81780986 24.9282148,6.7947795 26.7579189,7.99589054 L27.8893001,8.70961889 C28.0377511,8.80315374 28.2106263,8.85311735 28.3873538,8.8535641 C28.7015268,8.85531705 28.9944058,8.69887206 29.1621039,8.43972162 C29.4364131,8.02221992 29.312657,7.46693075 28.8854075,7.19819416 C28.4980324,6.95828547 28.1229549,6.7243745 27.7786215,6.49646125 C26.8149843,5.87431174 25.8174069,5.30368774 24.7902995,4.78711186 C25.4051806,4.65516208 26.0200617,4.51121687 26.6349427,4.36127394 C27.997715,4.01458177 29.3792416,3.74226277 30.7730923,3.54558441 C31.3372074,3.46561996 31.9062863,3.42353694 32.4763129,3.41963234 C34.2166355,3.35825661 35.9341271,3.82105492 37.3953615,4.74512784 C43.6425532,9.02150018 41.570404,17.3403339 38.4037664,25.6351767 C38.1947069,26.180969 37.7888854,27.0206494 37.3584686,27.9083115 C36.3562125,29.9655285 35.2186825,32.3046382 35.1203015,33.8280584 C34.6099502,41.6250907 33.4047833,47.2929334 31.7323068,49.8359655 C31.6216282,49.9979039 31.5109496,50.1778354 31.3879734,50.3697623 C31.0067471,50.9695341 29.9921934,52.58292 29.4633957,52.58292 C29.2960775,52.5394042 29.1474129,52.4448315 29.0391277,52.3130227 C28.2889728,51.5872989 28.0922109,50.0758742 27.9200442,48.7143924 C27.8770025,48.3725225 27.8339608,48.0366504 27.7847703,47.7307668 C27.5449667,46.2433329 27.4465857,44.98981 27.3543536,43.7842689 C27.2588302,41.4638059 26.8452354,39.1662628 26.1245914,36.952869 C25.3805853,34.7457091 23.929466,33.4561999 22.0294835,33.3542387 L21.8573168,33.3542387 C19.9573343,33.4801908 18.506215,34.7697 17.7683577,36.952869 C17.0449593,39.1656025 16.6312986,41.4635113 16.5385955,43.7842689 C16.4463634,44.9838123 16.3479824,46.2433329 16.1081788,47.7307668 C16.0589883,48.0366504 16.0159466,48.3725225 15.9729049,48.7143924 C15.8007382,50.0458856 15.6101251,51.5573103 14.8599702,52.3130227 C14.7486578,52.4443436 14.5982447,52.5386618 14.4295535,52.58292 C13.9007557,52.58292 12.886202,50.9755318 12.5049757,50.3697623 L12.1852375,49.8539587 C10.5312075,47.3289197 9.33218938,41.6310884 8.82183809,33.8460515 C8.72345712,32.3226314 7.59207594,29.9835217 6.58367099,27.9263047 C6.15325424,27.0386426 5.74743273,26.1989622 5.53837317,25.6531699 C2.3471404,17.3403339 0.299586436,9.03949333 6.54677812,4.74512784 Z" id="Shape"></path>
                    <path d="M5.51448267,12.09269 C5.52408826,11.1379744 5.66767763,10.1922441 5.93907319,9.29618676 C6.04795112,8.98435517 6.00901854,8.6253154 5.83738117,8.35837369 C5.6657438,8.09143198 5.38841624,7.95860322 5.11300068,8.01142453 C4.83758511,8.06424584 4.60743016,8.29440349 4.51183518,8.61259707 C4.18118848,9.71213679 4.00816392,10.8724024 4.00028034,12.0429744 C3.99478047,12.2902252 4.07039517,12.529995 4.21047575,12.7094917 C4.35055633,12.8889884 4.54361713,12.9934944 4.74715041,13 L4.74715041,13 C5.16307226,13.0001796 5.50339145,12.597779 5.51448267,12.09269 L5.51448267,12.09269 Z" id="Path"></path>
                    <path d="M6.92651309,8 C7.15346296,8.00133202 7.37316897,7.92653476 7.54450745,7.78959051 C7.71434912,7.65002895 7.89395268,7.52086343 8.08216254,7.40292501 C8.96901937,6.90947958 9.99456014,6.66813565 11.0299956,6.70920159 C11.4436949,6.71001179 11.8567818,6.73851834 12.2659843,6.79449546 C13.4717723,6.96202261 14.6663826,7.19173006 15.8441716,7.48253261 C16.3424826,7.59715841 16.8474336,7.31839066 16.9720113,6.85988741 C17.096589,6.40138416 16.7936184,5.93677126 16.2953075,5.82214543 C15.0515398,5.52116692 13.7910684,5.28199822 12.519362,5.10567698 C12.0242208,5.03809369 11.5243749,5.0038851 11.0238157,5.00332435 C9.60838109,4.96178791 8.2117337,5.31028307 7.0130323,6.00410567 C6.76583456,6.16332088 6.5309967,6.3339086 6.31469868,6.50449632 C5.9315382,6.81653978 5.89294337,7.35428803 6.22817947,7.70998291 C6.40412377,7.8953958 6.65900411,8.00124074 6.92651309,8 Z" id="Path"></path>
                </g>
            </g>
        </g>
    </g>
</svg>