<?xml version="1.0" encoding="UTF-8"?>
<svg width="48px" height="47px" viewBox="0 0 48 47" version="1.1" xmlns="http://www.w3.org/2000/svg" xmlns:xlink="http://www.w3.org/1999/xlink">
    <!-- Generator: Sketch 59.1 (86144) - https://sketch.com -->
    <title>video</title>
    <desc>Created with Sketch.</desc>
    <g id="Skillstar" stroke="none" stroke-width="1" fill="none" fill-rule="evenodd">
        <g id="Scorecard" transform="translate(-291.000000, -707.000000)" fill="#000000" fill-rule="nonzero">
            <g id="full-skill-vids" transform="translate(269.000000, 707.000000)">
                <g id="video" transform="translate(22.000000, 0.000000)">
                    <path d="M48,17.2731089 L15.961165,17.2731089 L47.9271845,9.93053042 L46.2961165,2.85720406 C46.0875696,1.90929604 45.5087251,1.08394069 44.6882821,0.564645677 C43.8678392,0.0453506682 42.8738026,-0.124840583 41.9271845,0.0919118694 L2.80339806,9.12277401 C1.16734097,9.50917201 0.00873143663,10.9648158 0,12.644883 L0,12.644883 L0,43.3177951 C0,45.3485822 1.64515428,46.9959866 3.67718447,47 L44.3446602,47 C46.3624524,46.9760866 47.9855788,45.3344908 47.9854369,43.3177951 L48,17.2731089 Z M37.7402913,3.91965843 L44.0679612,8.05304256 L39.1893204,9.1737136 L32.8616505,5.04760657 L37.7402913,3.91965843 Z M27.8956311,6.19738595 L34.223301,10.323493 L29.3446602,11.4514411 L23.0169903,7.32533409 L27.8956311,6.19738595 Z M18.2912621,8.38051137 L24.618932,12.5138955 L19.7402913,13.6345665 L13.4126214,9.5084595 L18.2912621,8.38051137 Z M8.47572816,10.6800701 L14.8033981,14.8061772 L9.92475728,15.9341253 L3.59708738,11.8080183 L8.47572816,10.6800701 Z M44.3373786,43.3177951 L3.6407767,43.3177951 L3.6407767,20.977145 L44.3373786,20.977145 L44.3373786,43.3177951 Z" id="Shape"></path>
                    <polygon id="Path" points="20 26 20 38 30 32.0036519"></polygon>
                </g>
            </g>
        </g>
    </g>
</svg>